{"asset":{"generator":"glTF-Transform v3.5.1","version":"2.0","extras":{"author":"JeffK (https://sketchfab.com/jeffkolada)","license":"CC-BY-4.0 (http://creativecommons.org/licenses/by/4.0/)","source":"https://sketchfab.com/3d-models/wooden-sign-baked-low-poly-0d2fbde1a0a446a1b3bb808664a7e08a","title":"Wooden Sign - Baked Low Poly"}},"accessors":[{"type":"VEC3","componentType":5126,"count":612,"bufferView":0,"byteOffset":0},{"type":"VEC3","componentType":5126,"count":612,"max":[0.9820969700813293,2.8099119663238525,0.13045760989189148],"min":[-1.0179030895233154,-0.2122783660888672,-0.12977385520935059],"bufferView":0,"byteOffset":12},{"type":"VEC2","componentType":5126,"count":612,"bufferView":0,"byteOffset":24},{"type":"SCALAR","componentType":5125,"count":1002,"bufferView":1,"byteOffset":0}],"bufferViews":[{"buffer":0,"byteOffset":0,"byteLength":19584,"byteStride":32,"target":34962},{"buffer":0,"byteOffset":19584,"byteLength":4008,"target":34963}],"samplers":[{"magFilter":9729,"minFilter":9987,"wrapS":10497,"wrapT":10497}],"textures":[{"source":0,"sampler":0}],"images":[{"name":"base","mimeType":"image/jpeg","uri":"baseColor.jpg"}],"buffers":[{"uri":"arrow-karel.bin","byteLength":23592}],"materials":[{"name":"Signpost_Tall_Baked_Dark","doubleSided":true,"pbrMetallicRoughness":{"roughnessFactor":0.9,"metallicFactor":0,"baseColorTexture":{"index":0}}}],"meshes":[{"primitives":[{"attributes":{"NORMAL":0,"POSITION":1,"TEXCOORD_0":2},"mode":4,"material":0,"indices":3}]}],"nodes":[{"name":"Object_4","mesh":0},{"name":"Signpost_Tall_Baked_dark_0","children":[0]},{"name":"GLTF_SceneRootNode","rotation":[0.7071067690849303,0,0,0.7071067932881646],"children":[1]},{"name":"root","children":[2]},{"name":"Sketchfab_model","rotation":[-0.7071067690849303,0,0,0.7071067932881646],"children":[3]}],"scenes":[{"name":"Sketchfab_Scene","nodes":[4]}],"scene":0}