{"asset":{"generator":"glTF-Transform v4.0.2","version":"2.0"},"accessors":[{"type":"SCALAR","componentType":5125,"count":297336,"bufferView":0,"byteOffset":0},{"type":"VEC3","componentType":5126,"count":54214,"max":[0.2581155300140381,0.4728090167045593,0.19628141820430756],"min":[-0.25912684202194214,-0.4734882414340973,-0.1960984468460083],"bufferView":1,"byteOffset":0},{"type":"VEC2","componentType":5126,"count":54214,"bufferView":1,"byteOffset":12},{"type":"VEC3","componentType":5126,"count":54214,"bufferView":1,"byteOffset":20}],"bufferViews":[{"buffer":0,"byteOffset":0,"byteLength":1189344,"target":34963},{"buffer":0,"byteOffset":1189344,"byteLength":1734848,"byteStride":32,"target":34962}],"samplers":[{"wrapS":10497,"wrapT":10497}],"textures":[{"source":0,"sampler":0},{"source":2,"sampler":0},{"source":1,"sampler":0}],"images":[{"mimeType":"image/jpeg","uri":"baseColor_1.jpg"},{"mimeType":"image/jpeg","uri":"metallicRoughness_1.jpg"},{"mimeType":"image/jpeg","uri":"normal_1.jpg"}],"buffers":[{"uri":"tripo_pbr_model_e8d95d41-326d-4008-ac90-d10c04e12c2d.bin","byteLength":2924192}],"materials":[{"name":"tripo_material_e8d95d41-326d-4008-ac90-d10c04e12c2d","pbrMetallicRoughness":{"baseColorTexture":{"index":0},"metallicRoughnessTexture":{"index":2}},"normalTexture":{"index":1}}],"meshes":[{"name":"tripo_mesh_e8d95d41-326d-4008-ac90-d10c04e12c2d","extras":{"name":"tripo_mesh_e8d95d41-326d-4008-ac90-d10c04e12c2d"},"primitives":[{"attributes":{"POSITION":1,"NORMAL":3,"TEXCOORD_0":2},"mode":4,"material":0,"indices":0}]}],"nodes":[{"name":"tripo_node_e8d95d41-326d-4008-ac90-d10c04e12c2d","mesh":0}],"scenes":[{"nodes":[0]}],"scene":0}