{
  "asset": {
    "generator": "gltfeditor.com",
    "version": "2.0"
  },
  "buffers": [
    {
      "uri": "Scene.bin",
      "byteLength": 22621292
    }
  ],
  "bufferViews": [
    {
      "buffer": 0,
      "byteOffset": 0,
      "byteLength": 6362148,
      "byteStride": 12,
      "target": 34962
    },
    {
      "buffer": 0,
      "byteOffset": 6362148,
      "byteLength": 4241432,
      "byteStride": 8,
      "target": 34962
    },
    {
      "buffer": 0,
      "byteOffset": 10603580,
      "byteLength": 12017712,
      "target": 34963
    }
  ],
  "accessors": [
    {
      "bufferView": 0,
      "byteOffset": 0,
      "componentType": 5126,
      "normalized": false,
      "count": 530179,
      "min": [
        -0.385162353515625,
        0,
        -0.372589111328125
      ],
      "max": [
        0.385162353515625,
        1,
        0.372589111328125
      ],
      "type": "VEC3"
    },
    {
      "bufferView": 1,
      "byteOffset": 0,
      "componentType": 5126,
      "normalized": false,
      "count": 530179,
      "min": [
        0,
        0
      ],
      "max": [
        1,
        0.999755859375
      ],
      "type": "VEC2"
    },
    {
      "bufferView": 2,
      "byteOffset": 0,
      "componentType": 5125,
      "normalized": false,
      "count": 3004428,
      "min": [
        0
      ],
      "max": [
        530178
      ],
      "type": "SCALAR"
    }
  ],
  "scene": 0,
  "scenes": [
    {
      "nodes": [
        0
      ],
      "name": "Scene"
    }
  ],
  "nodes": [
    {
      "name": "tripo_node_cc8ddfe0-5388-4a01-ab1a-97a9464be06b",
      "extensions": {
        "KHR_node_visibility": {
          "visible": true
        }
      },
      "mesh": 0
    }
  ],
  "meshes": [
    {
      "primitives": [
        {
          "material": 0,
          "mode": 4,
          "attributes": {
            "POSITION": 0,
            "TEXCOORD_0": 1
          },
          "indices": 2
        }
      ]
    }
  ],
  "materials": [
    {
      "name": "tripo_mat_cc8ddfe0-5388-4a01-ab1a-97a9464be06b",
      "pbrMetallicRoughness": {
        "baseColorFactor": [
          1,
          1,
          1,
          1
        ],
        "metallicFactor": 1,
        "roughnessFactor": 1,
        "baseColorTexture": {
          "index": 0,
          "texCoord": 0
        },
        "metallicRoughnessTexture": {
          "index": 1,
          "texCoord": 0
        }
      },
      "emissiveFactor": [
        0,
        0,
        0
      ],
      "alphaMode": "OPAQUE",
      "doubleSided": false,
      "normalTexture": {
        "index": 2,
        "texCoord": 0,
        "scale": 1
      }
    }
  ],
  "textures": [
    {
      "sampler": 0,
      "name": "tripo_image_cc8ddfe0-5388-4a01-ab1a-97a9464be06b_0.jpg",
      "source": 0
    },
    {
      "sampler": 1,
      "name": "tripo_image_cc8ddfe0-5388-4a01-ab1a-97a9464be06b_1.jpg",
      "source": 1
    },
    {
      "sampler": 2,
      "name": "tripo_image_cc8ddfe0-5388-4a01-ab1a-97a9464be06b_2.jpg",
      "source": 2
    }
  ],
  "samplers": [
    {
      "magFilter": 9729,
      "minFilter": 9987,
      "wrapS": 10497,
      "wrapT": 10497
    },
    {
      "magFilter": 9729,
      "minFilter": 9987,
      "wrapS": 10497,
      "wrapT": 10497
    },
    {
      "magFilter": 9729,
      "minFilter": 9987,
      "wrapS": 10497,
      "wrapT": 10497
    }
  ],
  "images": [
    {
      "uri": "data:image/jpeg;base64,",
      "mimeType": "image/jpeg",
      "name": "tripo_image_cc8ddfe0-5388-4a01-ab1a-97a9464be06b_0.jpg"
    },
    {
      "uri": "data:image/jpeg;base64,",
      "mimeType": "image/jpeg",
      "name": "tripo_image_cc8ddfe0-5388-4a01-ab1a-97a9464be06b_1.jpg"
    },
    {
      "uri": "data:image/jpeg;base64,",
      "mimeType": "image/jpeg",
      "name": "tripo_image_cc8ddfe0-5388-4a01-ab1a-97a9464be06b_2.jpg"
    }
  ],
  "extensionsUsed": [
    "KHR_node_visibility"
  ]
}