{"asset":{"generator":"glTF-Transform v3.5.1","version":"2.0","extras":{"author":"Al-Deezel (https://sketchfab.com/Al-dezel)","license":"CC-BY-4.0 (http://creativecommons.org/licenses/by/4.0/)","source":"https://sketchfab.com/3d-models/human-skull-high-detailed-75e237419bad4cf3b6059652b03e6a35","title":"Human Skull high detailed"}},"accessors":[{"type":"VEC3","componentType":5126,"count":15987,"max":[1.1151955127716064,3.384734869003296,1.7341440916061401],"min":[-1.1152092218399048,0.001586824655532837,-1.4991559982299805],"bufferView":0,"byteOffset":0},{"type":"VEC3","componentType":5126,"count":15987,"bufferView":0,"byteOffset":12},{"type":"VEC4","componentType":5126,"count":15987,"bufferView":0,"byteOffset":24},{"type":"VEC2","componentType":5126,"count":15987,"bufferView":0,"byteOffset":40},{"type":"SCALAR","componentType":5125,"count":89310,"bufferView":1,"byteOffset":0}],"bufferViews":[{"buffer":0,"byteOffset":0,"byteLength":767376,"byteStride":48,"target":34962},{"buffer":0,"byteOffset":767376,"byteLength":357240,"target":34963}],"samplers":[{"magFilter":9729,"minFilter":9987,"wrapS":10497,"wrapT":10497}],"textures":[{"source":0,"sampler":0},{"source":1,"sampler":0},{"source":2,"sampler":0},{"source":4,"sampler":0},{"source":3,"sampler":0}],"images":[{"mimeType":"image/png","uri":"baseColor_1.png"},{"mimeType":"image/png","uri":"normal_1.png"},{"mimeType":"image/png","uri":"occlusion_1.png"},{"mimeType":"image/png","uri":"specular_1.png"},{"mimeType":"image/png","uri":"metallicRoughness_1.png"}],"buffers":[{"uri":"human_skull.bin","byteLength":1124616}],"materials":[{"name":"material_0","doubleSided":true,"pbrMetallicRoughness":{"metallicFactor":0,"baseColorTexture":{"index":0},"metallicRoughnessTexture":{"index":3}},"normalTexture":{"index":1},"occlusionTexture":{"index":2},"extensions":{"KHR_materials_ior":{"ior":1000},"KHR_materials_specular":{"specularTexture":{"index":4},"specularColorTexture":{"index":4}}}}],"meshes":[{"name":"Object_0","primitives":[{"attributes":{"NORMAL":1,"POSITION":0,"TANGENT":2,"TEXCOORD_0":3,"TEXCOORD_1":3,"TEXCOORD_2":3,"TEXCOORD_3":3,"TEXCOORD_4":3},"mode":4,"material":0,"indices":4}]}],"nodes":[{"name":"Sketchfab_model","rotation":[-0.7071067811865475,0,0,0.7071067811865476],"children":[1]},{"name":"root","children":[2]},{"name":"GLTF_SceneRootNode","rotation":[0.7071067811865475,0,0,0.7071067811865476],"children":[3]},{"name":"RootNode.0_0","scale":[0.009999999776482582,0.009999999776482582,0.009999999776482582],"children":[4]},{"name":"human_skull.1_1","children":[5]},{"name":"Object_5","mesh":0}],"scenes":[{"name":"Sketchfab_Scene","nodes":[0]}],"scene":0,"extensionsUsed":["KHR_materials_ior","KHR_materials_specular"]}