{
  "asset": {
    "generator": "gltfeditor.com",
    "version": "2.0"
  },
  "buffers": [
    {
      "uri": "Scene.bin",
      "byteLength": 22217044
    }
  ],
  "bufferViews": [
    {
      "buffer": 0,
      "byteOffset": 0,
      "byteLength": 6129924,
      "byteStride": 12,
      "target": 34962
    },
    {
      "buffer": 0,
      "byteOffset": 6129924,
      "byteLength": 4086616,
      "byteStride": 8,
      "target": 34962
    },
    {
      "buffer": 0,
      "byteOffset": 10216540,
      "byteLength": 12000504,
      "target": 34963
    }
  ],
  "accessors": [
    {
      "bufferView": 0,
      "byteOffset": 0,
      "componentType": 5126,
      "normalized": false,
      "count": 510827,
      "min": [
        -0.368988037109375,
        0,
        -0.3065185546875
      ],
      "max": [
        0.368988037109375,
        1,
        0.3065185546875
      ],
      "type": "VEC3"
    },
    {
      "bufferView": 1,
      "byteOffset": 0,
      "componentType": 5126,
      "normalized": false,
      "count": 510827,
      "min": [
        0,
        0.022216796875
      ],
      "max": [
        1,
        1
      ],
      "type": "VEC2"
    },
    {
      "bufferView": 2,
      "byteOffset": 0,
      "componentType": 5125,
      "normalized": false,
      "count": 3000126,
      "min": [
        0
      ],
      "max": [
        510826
      ],
      "type": "SCALAR"
    }
  ],
  "scene": 0,
  "scenes": [
    {
      "nodes": [
        0
      ],
      "name": "Scene"
    }
  ],
  "nodes": [
    {
      "name": "tripo_node_8a2c202e-fd2a-47aa-b393-c5459aefc1a1",
      "extensions": {
        "KHR_node_visibility": {
          "visible": true
        }
      },
      "mesh": 0
    }
  ],
  "meshes": [
    {
      "primitives": [
        {
          "material": 0,
          "mode": 4,
          "attributes": {
            "POSITION": 0,
            "TEXCOORD_0": 1
          },
          "indices": 2
        }
      ]
    }
  ],
  "materials": [
    {
      "name": "tripo_mat_8a2c202e-fd2a-47aa-b393-c5459aefc1a1",
      "pbrMetallicRoughness": {
        "baseColorFactor": [
          1,
          1,
          1,
          1
        ],
        "metallicFactor": 0,
        "roughnessFactor": 0.5,
        "baseColorTexture": {
          "index": 0,
          "texCoord": 0
        }
      },
      "emissiveFactor": [
        0,
        0,
        0
      ],
      "alphaMode": "OPAQUE",
      "doubleSided": true
    }
  ],
  "textures": [
    {
      "sampler": 0,
      "name": "tripo_image_8a2c202e-fd2a-47aa-b393-c5459aefc1a1_0.jpg",
      "source": 0
    }
  ],
  "samplers": [
    {
      "magFilter": 9729,
      "minFilter": 9987,
      "wrapS": 10497,
      "wrapT": 10497
    }
  ],
  "images": [
    {
      "uri": "data:image/jpeg;base64,",
      "mimeType": "image/jpeg",
      "name": "tripo_image_8a2c202e-fd2a-47aa-b393-c5459aefc1a1_0.jpg"
    }
  ],
  "extensionsUsed": [
    "KHR_node_visibility"
  ]
}