{
  "asset": {
    "generator": "gltfeditor.com",
    "version": "2.0",
    "extras": {
      "author": "taigo (https://sketchfab.com/taigo)",
      "license": "CC-BY-4.0 (http://creativecommons.org/licenses/by/4.0/)",
      "source": "https://sketchfab.com/3d-models/lowpoly-vr-glasses-c37e201c0f4a49deb2415b4949e011e7",
      "title": "Lowpoly VR glasses"
    }
  },
  "buffers": [
    {
      "uri": "data:application/octet-stream;base64,",
      "byteLength": 75056
    },
    {
      "uri": "data:application/octet-stream;base64,",
      "byteLength": 77768
    }
  ],
  "bufferViews": [
    {
      "buffer": 0,
      "byteOffset": 0,
      "byteLength": 54080,
      "byteStride": 32,
      "target": 34962
    },
    {
      "buffer": 0,
      "byteOffset": 54080,
      "byteLength": 20976,
      "target": 34963
    },
    {
      "buffer": 1,
      "byteOffset": 0,
      "byteLength": 56576,
      "byteStride": 32,
      "target": 34962
    },
    {
      "buffer": 1,
      "byteOffset": 56576,
      "byteLength": 21192,
      "target": 34963
    }
  ],
  "accessors": [
    {
      "bufferView": 0,
      "byteOffset": 0,
      "componentType": 5126,
      "normalized": false,
      "count": 1690,
      "min": [
        -0.9995546936988831,
        -1,
        -1
      ],
      "max": [
        0.9995546936988831,
        1,
        1
      ],
      "type": "VEC3"
    },
    {
      "bufferView": 0,
      "byteOffset": 12,
      "componentType": 5126,
      "normalized": false,
      "count": 1690,
      "min": [
        -1.1823475360870361,
        -0.560720682144165,
        -3.171079397201538
      ],
      "max": [
        1.1823475360870361,
        0.560720682144165,
        0.4797530472278595
      ],
      "type": "VEC3"
    },
    {
      "bufferView": 0,
      "byteOffset": 24,
      "componentType": 5126,
      "normalized": false,
      "count": 1690,
      "min": [
        0,
        0.12499988079071045
      ],
      "max": [
        0.75,
        1
      ],
      "type": "VEC2"
    },
    {
      "bufferView": 1,
      "byteOffset": 0,
      "componentType": 5125,
      "normalized": false,
      "count": 5244,
      "min": [
        0
      ],
      "max": [
        1689
      ],
      "type": "SCALAR"
    },
    {
      "bufferView": 2,
      "byteOffset": 0,
      "componentType": 5126,
      "normalized": false,
      "count": 1768,
      "min": [
        -0.9989824295043945,
        -1,
        -1
      ],
      "max": [
        0.9989824295043945,
        1,
        0.9999078512191772
      ],
      "type": "VEC3"
    },
    {
      "bufferView": 2,
      "byteOffset": 12,
      "componentType": 5126,
      "normalized": false,
      "count": 1768,
      "min": [
        -1.0990917682647705,
        -0.5959938764572144,
        -2.9957077503204346
      ],
      "max": [
        1.0990917682647705,
        0.5959938764572144,
        0.43064478039741516
      ],
      "type": "VEC3"
    },
    {
      "bufferView": 2,
      "byteOffset": 24,
      "componentType": 5126,
      "normalized": false,
      "count": 1768,
      "min": [
        0,
        0.26562607288360596
      ],
      "max": [
        0.75,
        1
      ],
      "type": "VEC2"
    },
    {
      "bufferView": 3,
      "byteOffset": 0,
      "componentType": 5125,
      "normalized": false,
      "count": 5298,
      "min": [
        0
      ],
      "max": [
        1767
      ],
      "type": "SCALAR"
    }
  ],
  "scene": 0,
  "scenes": [
    {
      "nodes": [
        6
      ],
      "name": "Sketchfab_Scene"
    }
  ],
  "nodes": [
    {
      "name": "Object_4",
      "mesh": 0
    },
    {
      "name": "Object_5",
      "mesh": 1
    },
    {
      "name": "Object_6"
    },
    {
      "name": "Cube_0",
      "children": [
        0,
        1,
        2
      ],
      "matrix": [
        1.0015450716018677,
        0,
        0,
        0,
        0,
        1.0015450716018677,
        0,
        0,
        0,
        0,
        1.0015450716018677,
        0,
        0,
        0.09495082497596741,
        0,
        1
      ]
    },
    {
      "name": "GLTF_SceneRootNode",
      "children": [
        3
      ],
      "matrix": [
        1,
        0,
        0,
        0,
        0,
        3.422854177870249e-8,
        0.9999999403953552,
        0,
        0,
        -0.9999999403953552,
        3.422854177870249e-8,
        0,
        0,
        0,
        0,
        1
      ]
    },
    {
      "name": "root",
      "children": [
        4
      ]
    },
    {
      "name": "Sketchfab_model",
      "children": [
        5
      ],
      "matrix": [
        0.09642737358808517,
        0,
        0,
        0,
        0,
        3.3005684851872275e-9,
        -0.09642737358808517,
        0,
        0,
        0.09642737358808517,
        3.3005684851872275e-9,
        0,
        0,
        0,
        0,
        1
      ]
    }
  ],
  "meshes": [
    {
      "primitives": [
        {
          "material": 0,
          "mode": 4,
          "attributes": {
            "NORMAL": 0,
            "POSITION": 1,
            "TEXCOORD_0": 2
          },
          "indices": 3
        }
      ]
    },
    {
      "primitives": [
        {
          "material": 1,
          "mode": 4,
          "attributes": {
            "NORMAL": 4,
            "POSITION": 5,
            "TEXCOORD_0": 6
          },
          "indices": 7
        }
      ]
    }
  ],
  "materials": [
    {
      "name": "Branco",
      "pbrMetallicRoughness": {
        "baseColorFactor": [
          0.8,
          0.8,
          0.8,
          1
        ],
        "metallicFactor": 0,
        "roughnessFactor": 0.8
      },
      "emissiveFactor": [
        0,
        0,
        0
      ],
      "alphaMode": "OPAQUE",
      "doubleSided": true
    },
    {
      "name": "Preto",
      "pbrMetallicRoughness": {
        "baseColorFactor": [
          0.023529411764705882,
          0.023529411764705882,
          0.023529411764705882,
          1
        ],
        "metallicFactor": 0,
        "roughnessFactor": 0.5
      },
      "emissiveFactor": [
        0,
        0,
        0
      ],
      "alphaMode": "OPAQUE",
      "doubleSided": true
    }
  ]
}