{
  "asset": {
    "generator": "gltfeditor.com",
    "version": "2.0"
  },
  "buffers": [
    {
      "uri": "data:application/octet-stream;base64,",
      "byteLength": 67468
    }
  ],
  "bufferViews": [
    {
      "buffer": 0,
      "byteOffset": 0,
      "byteLength": 5916,
      "byteStride": 12,
      "target": 34962
    },
    {
      "buffer": 0,
      "byteOffset": 5916,
      "byteLength": 5916,
      "byteStride": 12,
      "target": 34962
    },
    {
      "buffer": 0,
      "byteOffset": 11832,
      "byteLength": 3944,
      "byteStride": 8,
      "target": 34962
    },
    {
      "buffer": 0,
      "byteOffset": 15776,
      "byteLength": 4092,
      "target": 34963
    },
    {
      "buffer": 0,
      "byteOffset": 19868,
      "byteLength": 2016,
      "byteStride": 12,
      "target": 34962
    },
    {
      "buffer": 0,
      "byteOffset": 21884,
      "byteLength": 2016,
      "byteStride": 12,
      "target": 34962
    },
    {
      "buffer": 0,
      "byteOffset": 23900,
      "byteLength": 1344,
      "byteStride": 8,
      "target": 34962
    },
    {
      "buffer": 0,
      "byteOffset": 25244,
      "byteLength": 960,
      "target": 34963
    },
    {
      "buffer": 0,
      "byteOffset": 26204,
      "byteLength": 48,
      "byteStride": 12,
      "target": 34962
    },
    {
      "buffer": 0,
      "byteOffset": 26252,
      "byteLength": 48,
      "byteStride": 12,
      "target": 34962
    },
    {
      "buffer": 0,
      "byteOffset": 26300,
      "byteLength": 32,
      "byteStride": 8,
      "target": 34962
    },
    {
      "buffer": 0,
      "byteOffset": 26332,
      "byteLength": 24,
      "target": 34963
    },
    {
      "buffer": 0,
      "byteOffset": 26356,
      "byteLength": 11472,
      "byteStride": 12,
      "target": 34962
    },
    {
      "buffer": 0,
      "byteOffset": 37828,
      "byteLength": 11472,
      "byteStride": 12,
      "target": 34962
    },
    {
      "buffer": 0,
      "byteOffset": 49300,
      "byteLength": 7648,
      "byteStride": 8,
      "target": 34962
    },
    {
      "buffer": 0,
      "byteOffset": 56948,
      "byteLength": 7776,
      "target": 34963
    },
    {
      "buffer": 0,
      "byteOffset": 64724,
      "byteLength": 840,
      "byteStride": 12,
      "target": 34962
    },
    {
      "buffer": 0,
      "byteOffset": 65564,
      "byteLength": 840,
      "byteStride": 12,
      "target": 34962
    },
    {
      "buffer": 0,
      "byteOffset": 66404,
      "byteLength": 560,
      "byteStride": 8,
      "target": 34962
    },
    {
      "buffer": 0,
      "byteOffset": 66964,
      "byteLength": 504,
      "target": 34963
    }
  ],
  "accessors": [
    {
      "bufferView": 0,
      "byteOffset": 0,
      "componentType": 5126,
      "normalized": false,
      "count": 493,
      "min": [
        -4.401432514190674,
        -0.07537807524204254,
        -3.0257489681243896
      ],
      "max": [
        4.401432514190674,
        0.1439409852027893,
        3.024876832962036
      ],
      "type": "VEC3"
    },
    {
      "bufferView": 1,
      "byteOffset": 0,
      "componentType": 5126,
      "normalized": false,
      "count": 493,
      "min": [
        -1,
        -1,
        -1
      ],
      "max": [
        1,
        1,
        1
      ],
      "type": "VEC3"
    },
    {
      "bufferView": 2,
      "byteOffset": 0,
      "componentType": 5126,
      "normalized": false,
      "count": 493,
      "min": [
        -0.030413683503866196,
        -0.06642162799835205
      ],
      "max": [
        1.4020239114761353,
        2.413076877593994
      ],
      "type": "VEC2"
    },
    {
      "bufferView": 3,
      "byteOffset": 0,
      "componentType": 5125,
      "normalized": false,
      "count": 1023,
      "min": [
        0
      ],
      "max": [
        492
      ],
      "type": "SCALAR"
    },
    {
      "bufferView": 4,
      "byteOffset": 0,
      "componentType": 5126,
      "normalized": false,
      "count": 168,
      "min": [
        -4.373711109161377,
        0.03868962824344635,
        -2.9980275630950928
      ],
      "max": [
        4.373711109161377,
        0.1455218493938446,
        3.010216474533081
      ],
      "type": "VEC3"
    },
    {
      "bufferView": 5,
      "byteOffset": 0,
      "componentType": 5126,
      "normalized": false,
      "count": 168,
      "min": [
        0,
        -1,
        -1
      ],
      "max": [
        0,
        1,
        1
      ],
      "type": "VEC3"
    },
    {
      "bufferView": 6,
      "byteOffset": 0,
      "componentType": 5126,
      "normalized": false,
      "count": 168,
      "min": [
        -0.02832021936774254,
        -0.04452395439147949
      ],
      "max": [
        1.021889567375183,
        2.386165142059326
      ],
      "type": "VEC2"
    },
    {
      "bufferView": 7,
      "byteOffset": 0,
      "componentType": 5125,
      "normalized": false,
      "count": 240,
      "min": [
        0
      ],
      "max": [
        167
      ],
      "type": "SCALAR"
    },
    {
      "bufferView": 8,
      "byteOffset": 0,
      "componentType": 5126,
      "normalized": false,
      "count": 4,
      "min": [
        -4.150343418121338,
        0.03868962824344635,
        -2.7746598720550537
      ],
      "max": [
        4.150346279144287,
        0.03868962824344635,
        2.598283052444458
      ],
      "type": "VEC3"
    },
    {
      "bufferView": 9,
      "byteOffset": 0,
      "componentType": 5126,
      "normalized": false,
      "count": 4,
      "min": [
        0,
        1,
        0
      ],
      "max": [
        0,
        1,
        0
      ],
      "type": "VEC3"
    },
    {
      "bufferView": 10,
      "byteOffset": 0,
      "componentType": 5126,
      "normalized": false,
      "count": 4,
      "min": [
        0.004772054962813854,
        -0.0028346776962280273
      ],
      "max": [
        0.9967190623283386,
        0.999894380569458
      ],
      "type": "VEC2"
    },
    {
      "bufferView": 11,
      "byteOffset": 0,
      "componentType": 5125,
      "normalized": false,
      "count": 6,
      "min": [
        0
      ],
      "max": [
        3
      ],
      "type": "SCALAR"
    },
    {
      "bufferView": 12,
      "byteOffset": 0,
      "componentType": 5126,
      "normalized": false,
      "count": 956,
      "min": [
        -4.401432514190674,
        -0.11002210527658463,
        -3.0257492065429688
      ],
      "max": [
        4.401432514190674,
        0.12219806760549545,
        3.024876594543457
      ],
      "type": "VEC3"
    },
    {
      "bufferView": 13,
      "byteOffset": 0,
      "componentType": 5126,
      "normalized": false,
      "count": 956,
      "min": [
        -1,
        -1,
        -1
      ],
      "max": [
        1,
        1,
        1
      ],
      "type": "VEC3"
    },
    {
      "bufferView": 14,
      "byteOffset": 0,
      "componentType": 5126,
      "normalized": false,
      "count": 956,
      "min": [
        0.005900149699300528,
        0.007343292236328125
      ],
      "max": [
        0.9998748898506165,
        0.9925733804702759
      ],
      "type": "VEC2"
    },
    {
      "bufferView": 15,
      "byteOffset": 0,
      "componentType": 5125,
      "normalized": false,
      "count": 1944,
      "min": [
        0
      ],
      "max": [
        955
      ],
      "type": "SCALAR"
    },
    {
      "bufferView": 16,
      "byteOffset": 0,
      "componentType": 5126,
      "normalized": false,
      "count": 70,
      "min": [
        -2.01312255859375,
        0.1112826019525528,
        0.4105339050292969
      ],
      "max": [
        2.01312255859375,
        0.1112826019525528,
        2.8907952308654785
      ],
      "type": "VEC3"
    },
    {
      "bufferView": 17,
      "byteOffset": 0,
      "componentType": 5126,
      "normalized": false,
      "count": 70,
      "min": [
        0,
        -1,
        0
      ],
      "max": [
        0,
        -1,
        0
      ],
      "type": "VEC3"
    },
    {
      "bufferView": 18,
      "byteOffset": 0,
      "componentType": 5126,
      "normalized": false,
      "count": 70,
      "min": [
        0.002418064745143056,
        0.09169220924377441
      ],
      "max": [
        0.16358204185962677,
        0.369720458984375
      ],
      "type": "VEC2"
    },
    {
      "bufferView": 19,
      "byteOffset": 0,
      "componentType": 5125,
      "normalized": false,
      "count": 126,
      "min": [
        0
      ],
      "max": [
        69
      ],
      "type": "SCALAR"
    }
  ],
  "scene": 0,
  "scenes": [
    {
      "nodes": [
        1,
        2
      ]
    }
  ],
  "nodes": [
    {
      "name": "screen",
      "matrix": [
        1,
        0,
        0,
        0,
        0,
        -1.3435885648505064e-7,
        1.0000001192092896,
        0,
        0,
        -1.0000001192092896,
        -1.3435885648505064e-7,
        0,
        0,
        2.9645867347717285,
        -0.13032397627830505,
        1
      ],
      "extensions": {
        "KHR_node_visibility": {
          "visible": true
        }
      },
      "mesh": 0
    },
    {
      "name": "screenflip",
      "children": [
        0
      ],
      "matrix": [
        1,
        0,
        0,
        0,
        0,
        0.9998961091041565,
        0.014416307210922241,
        0,
        0,
        -0.014416307210922241,
        0.9998961091041565,
        0,
        0.0024824142456054688,
        -0.03834950178861618,
        0.41413453221321106,
        1
      ],
      "extensions": {
        "KHR_node_visibility": {
          "visible": true
        }
      }
    },
    {
      "name": "base",
      "matrix": [
        1,
        0,
        0,
        0,
        0,
        1,
        0,
        0,
        0,
        0,
        1,
        0,
        0,
        -0.09984040260314941,
        3.3942787647247314,
        1
      ],
      "extensions": {
        "KHR_node_visibility": {
          "visible": true
        }
      },
      "mesh": 1
    }
  ],
  "meshes": [
    {
      "primitives": [
        {
          "material": 0,
          "mode": 4,
          "attributes": {
            "POSITION": 0,
            "NORMAL": 1,
            "TEXCOORD_0": 2
          },
          "indices": 3
        },
        {
          "material": 1,
          "mode": 4,
          "attributes": {
            "POSITION": 4,
            "NORMAL": 5,
            "TEXCOORD_0": 6
          },
          "indices": 7
        },
        {
          "material": 2,
          "mode": 4,
          "attributes": {
            "POSITION": 8,
            "NORMAL": 9,
            "TEXCOORD_0": 10
          },
          "indices": 11
        }
      ]
    },
    {
      "primitives": [
        {
          "material": 0,
          "mode": 4,
          "attributes": {
            "POSITION": 12,
            "NORMAL": 13,
            "TEXCOORD_0": 14
          },
          "indices": 15
        },
        {
          "material": 3,
          "mode": 4,
          "attributes": {
            "POSITION": 16,
            "NORMAL": 17,
            "TEXCOORD_0": 18
          },
          "indices": 19
        }
      ]
    }
  ],
  "materials": [
    {
      "name": "aluminium",
      "pbrMetallicRoughness": {
        "baseColorFactor": [
          0.6039215686274509,
          0.6039215686274509,
          0.6039215686274509,
          1
        ],
        "metallicFactor": 1,
        "roughnessFactor": 0.5
      },
      "emissiveFactor": [
        0,
        0,
        0
      ],
      "alphaMode": "OPAQUE",
      "doubleSided": true
    },
    {
      "name": "matte.001",
      "pbrMetallicRoughness": {
        "baseColorFactor": [
          0,
          0,
          0,
          1
        ],
        "metallicFactor": 0,
        "roughnessFactor": 0.5
      },
      "emissiveFactor": [
        0,
        0,
        0
      ],
      "alphaMode": "OPAQUE",
      "doubleSided": true
    },
    {
      "name": "screen.001",
      "pbrMetallicRoughness": {
        "baseColorFactor": [
          1,
          1,
          1,
          1
        ],
        "metallicFactor": 0,
        "roughnessFactor": 0.09999999403953552,
        "baseColorTexture": {
          "index": 0,
          "texCoord": 0
        }
      },
      "emissiveFactor": [
        0,
        0,
        0
      ],
      "alphaMode": "OPAQUE",
      "doubleSided": true
    },
    {
      "name": "trackpad",
      "pbrMetallicRoughness": {
        "baseColorFactor": [
          0.32941176470588235,
          0.32941176470588235,
          0.32941176470588235,
          1
        ],
        "metallicFactor": 1,
        "roughnessFactor": 0.6613636016845703
      },
      "emissiveFactor": [
        0,
        0,
        0
      ],
      "alphaMode": "OPAQUE",
      "doubleSided": true
    }
  ],
  "textures": [
    {
      "sampler": 0,
      "name": "Ewt6oIKWQAAia0d.jpg",
      "source": 0
    }
  ],
  "samplers": [
    {
      "magFilter": 9729,
      "minFilter": 9987,
      "wrapS": 10497,
      "wrapT": 10497
    }
  ],
  "images": [
    {
      "uri": "data:image/jpeg;base64,",
      "mimeType": "image/jpeg",
      "name": "Ewt6oIKWQAAia0d.jpg"
    }
  ],
  "extensionsUsed": [
    "KHR_node_visibility"
  ]
}