{"asset":{"generator":"glTF-Transform v4.2.1","version":"2.0"},"accessors":[{"type":"SCALAR","componentType":5123,"count":5184,"bufferView":0,"byteOffset":0},{"type":"SCALAR","componentType":5123,"count":468,"bufferView":0,"byteOffset":10368},{"type":"SCALAR","componentType":5123,"count":1872,"bufferView":0,"byteOffset":11304},{"type":"VEC3","componentType":5126,"count":866,"max":[0.04323220252990723,0.047114551067352295,0.05419673025608063],"min":[-0.06939935684204102,-0.11236890405416489,-0.09886060655117035],"bufferView":1,"byteOffset":0},{"type":"VEC3","componentType":5126,"count":866,"bufferView":1,"byteOffset":12},{"type":"VEC2","componentType":5126,"count":866,"bufferView":1,"byteOffset":24},{"type":"VEC3","componentType":5126,"count":162,"max":[1,1,1],"min":[-1,-1,-1],"bufferView":2,"byteOffset":0},{"type":"VEC3","componentType":5126,"count":162,"bufferView":2,"byteOffset":12},{"type":"VEC2","componentType":5126,"count":162,"bufferView":2,"byteOffset":24},{"type":"VEC3","componentType":5126,"count":432,"max":[0.055442407727241516,0.1040688157081604,0.01415121927857399],"min":[-0.05390380695462227,-0.0062820385210216045,-0.05877994745969772],"bufferView":3,"byteOffset":0},{"type":"VEC3","componentType":5126,"count":432,"bufferView":3,"byteOffset":12},{"type":"VEC2","componentType":5126,"count":432,"bufferView":3,"byteOffset":24}],"bufferViews":[{"buffer":0,"byteOffset":0,"byteLength":15048,"target":34963},{"buffer":0,"byteOffset":15048,"byteLength":27712,"byteStride":32,"target":34962},{"buffer":0,"byteOffset":42760,"byteLength":5184,"byteStride":32,"target":34962},{"buffer":0,"byteOffset":47944,"byteLength":13824,"byteStride":32,"target":34962}],"samplers":[{"magFilter":9729,"minFilter":9987,"wrapS":10497,"wrapT":10497}],"textures":[{"sampler":0,"extensions":{"EXT_texture_webp":{"source":0}}}],"images":[{"name":"HAND_C2","mimeType":"image/webp","uri":"baseColor.webp"}],"buffers":[{"uri":"RightHandGrip.bin","byteLength":61768}],"materials":[{"name":"Material.004","doubleSided":true,"pbrMetallicRoughness":{"roughnessFactor":0.846606969833374,"baseColorTexture":{"index":0}},"extensions":{"KHR_materials_ior":{"ior":1.4500000476837158},"KHR_materials_specular":{}}},{"name":"Blue texture","doubleSided":true,"pbrMetallicRoughness":{"baseColorFactor":[0.011612245176281512,0.061246054224174035,0.33245153633549385,1],"roughnessFactor":0.8293051719665527,"metallicFactor":0}},{"name":"Green texture","doubleSided":true,"pbrMetallicRoughness":{"baseColorFactor":[0.0021246888847058823,0.3094689228067428,0.02121901037134225,1],"roughnessFactor":0.5,"metallicFactor":0}}],"meshes":[{"name":"AvatarBody.008","primitives":[{"attributes":{"POSITION":3,"NORMAL":4,"TEXCOORD_0":5},"mode":4,"material":0,"indices":0}]},{"name":"Cylinder","primitives":[{"attributes":{"POSITION":6,"NORMAL":7,"TEXCOORD_0":8},"mode":4,"material":1,"indices":1}]},{"name":"BezierCurve","primitives":[{"attributes":{"POSITION":9,"NORMAL":10,"TEXCOORD_0":11},"mode":4,"material":2,"indices":2}]}],"nodes":[{"name":"AvatarBody.006","translation":[-1.8701739311218262,0.6535468101501465,0.37874338030815125],"rotation":[0.497027724981308,-0.24167366325855255,-0.33374306559562683,0.7636575698852539],"mesh":0},{"name":"Cylinder","translation":[-1.8618828058242798,0.6651141047477722,0.37311381101608276],"scale":[0.004244417417794466,0.08985736221075058,0.004244417417794466],"mesh":1},{"name":"BezierCurve","translation":[-1.871161937713623,0.6481049656867981,0.44449570775032043],"mesh":2}],"scenes":[{"name":"Scene","nodes":[0,1,2]}],"scene":0,"extensionsUsed":["EXT_texture_webp","KHR_materials_ior","KHR_materials_specular"],"extensionsRequired":["EXT_texture_webp"]}