{"asset":{"generator":"glTF-Transform v4.2.1","version":"2.0"},"accessors":[{"type":"VEC3","componentType":5126,"count":866,"max":[0.04323220252990723,0.047114551067352295,0.05419673025608063],"min":[-0.06939935684204102,-0.11236890405416489,-0.09886060655117035],"bufferView":0,"byteOffset":0},{"type":"VEC3","componentType":5126,"count":866,"bufferView":0,"byteOffset":12},{"type":"VEC2","componentType":5126,"count":866,"bufferView":0,"byteOffset":24},{"type":"SCALAR","componentType":5123,"count":5184,"bufferView":1,"byteOffset":0},{"type":"SCALAR","componentType":5123,"count":468,"bufferView":1,"byteOffset":10368},{"type":"SCALAR","componentType":5123,"count":1632,"bufferView":1,"byteOffset":11304},{"type":"SCALAR","componentType":5123,"count":288,"bufferView":1,"byteOffset":14568},{"type":"VEC3","componentType":5126,"count":162,"max":[1,1,1],"min":[-1,-1,-1],"bufferView":2,"byteOffset":0},{"type":"VEC3","componentType":5126,"count":162,"bufferView":2,"byteOffset":12},{"type":"VEC2","componentType":5126,"count":162,"bufferView":2,"byteOffset":24},{"type":"VEC3","componentType":5126,"count":344,"max":[0.055442407727241516,0.006281901616603136,0.01415121927857399],"min":[-0.05390380695462227,-0.0062820385210216045,-0.028838612139225006],"bufferView":3,"byteOffset":0},{"type":"VEC3","componentType":5126,"count":344,"bufferView":3,"byteOffset":12},{"type":"VEC2","componentType":5126,"count":344,"bufferView":3,"byteOffset":24},{"type":"VEC3","componentType":5126,"count":98,"max":[0.013919513672590256,0.1040688157081604,-0.04768138378858566],"min":[0.003075764514505863,0.061099469661712646,-0.05877994745969772],"bufferView":4,"byteOffset":0},{"type":"VEC3","componentType":5126,"count":98,"bufferView":4,"byteOffset":12},{"type":"VEC2","componentType":5126,"count":98,"bufferView":4,"byteOffset":24}],"bufferViews":[{"buffer":0,"byteOffset":0,"byteLength":27712,"byteStride":32,"target":34962},{"buffer":0,"byteOffset":27712,"byteLength":15144,"target":34963},{"buffer":0,"byteOffset":42856,"byteLength":5184,"byteStride":32,"target":34962},{"buffer":0,"byteOffset":48040,"byteLength":11008,"byteStride":32,"target":34962},{"buffer":0,"byteOffset":59048,"byteLength":3136,"byteStride":32,"target":34962}],"samplers":[{"magFilter":9729,"minFilter":9987,"wrapS":10497,"wrapT":10497}],"textures":[{"source":0,"sampler":0},{"source":1,"sampler":0},{"source":2,"sampler":0}],"images":[{"name":"HAND_C2","mimeType":"image/jpeg","uri":"baseColor_1.jpg"},{"name":"Blue","mimeType":"image/jpeg","uri":"baseColor_2.jpg"},{"name":"Green","mimeType":"image/jpeg","uri":"baseColor_3.jpg"}],"buffers":[{"uri":"RightHandGrip.bin","byteLength":62184}],"materials":[{"name":"Material.004","doubleSided":true,"pbrMetallicRoughness":{"roughnessFactor":0.846606969833374,"baseColorTexture":{"index":0}},"extensions":{"KHR_materials_ior":{"ior":1.4500000476837158},"KHR_materials_specular":{}}},{"name":"Blue texture","doubleSided":true,"pbrMetallicRoughness":{"roughnessFactor":0.8293051719665527,"metallicFactor":0,"baseColorTexture":{"index":1}}},{"name":"Green texture","doubleSided":true,"pbrMetallicRoughness":{"roughnessFactor":0.5,"metallicFactor":0,"baseColorTexture":{"index":2}}}],"meshes":[{"name":"AvatarBody.008","primitives":[{"attributes":{"POSITION":0,"NORMAL":1,"TEXCOORD_0":2},"mode":4,"material":0,"indices":3}]},{"name":"Cylinder","primitives":[{"attributes":{"POSITION":7,"NORMAL":8,"TEXCOORD_0":9},"mode":4,"material":1,"indices":4}]},{"name":"BezierCurve","primitives":[{"attributes":{"POSITION":10,"NORMAL":11,"TEXCOORD_0":12},"mode":4,"material":2,"indices":5}]},{"name":"BezierCurve.001","primitives":[{"attributes":{"POSITION":13,"NORMAL":14,"TEXCOORD_0":15},"mode":4,"material":2,"indices":6}]}],"nodes":[{"name":"AvatarBody.006","translation":[-1.8701739311218262,0.6535468101501465,0.37874338030815125],"rotation":[0.497027724981308,-0.24167366325855255,-0.33374306559562683,0.7636575698852539],"mesh":0},{"name":"Cylinder","translation":[-1.8618828058242798,0.6651141047477722,0.37311381101608276],"scale":[0.004244417417794466,0.08985736221075058,0.004244417417794466],"mesh":1},{"name":"BezierCurve","translation":[-1.871161937713623,0.6481049656867981,0.44449570775032043],"mesh":2},{"name":"BezierCurve.002","translation":[-1.871161937713623,0.6481049656867981,0.44449570775032043],"mesh":3}],"scenes":[{"name":"Scene","nodes":[0,1,2,3]}],"scene":0,"extensionsUsed":["KHR_materials_ior","KHR_materials_specular"]}