{"asset":{"generator":"glTF-Transform v3.5.1","version":"2.0"},"accessors":[{"type":"VEC3","componentType":5126,"count":24,"max":[134.2869110107422,1.3163182735443115,32],"min":[49.516109466552734,-25.397335052490234,0],"bufferView":0,"byteOffset":0},{"type":"VEC3","componentType":5126,"count":24,"bufferView":0,"byteOffset":12},{"type":"VEC2","componentType":5126,"count":24,"bufferView":0,"byteOffset":24},{"type":"VEC3","componentType":5126,"count":24,"max":[134.2869110107422,1.932807445526123,32],"min":[-53.778587341308594,-25.919607162475586,0],"bufferView":1,"byteOffset":0},{"type":"VEC3","componentType":5126,"count":24,"bufferView":1,"byteOffset":12},{"type":"VEC2","componentType":5126,"count":24,"bufferView":1,"byteOffset":24},{"type":"VEC3","componentType":5126,"count":24,"max":[134.2869110107422,0.8308987021446228,32],"min":[-73.74115753173828,-29.181285858154297,0],"bufferView":2,"byteOffset":0},{"type":"VEC3","componentType":5126,"count":24,"bufferView":2,"byteOffset":12},{"type":"VEC2","componentType":5126,"count":24,"bufferView":2,"byteOffset":24},{"type":"SCALAR","componentType":5125,"count":36,"bufferView":3,"byteOffset":0}],"bufferViews":[{"buffer":0,"byteOffset":0,"byteLength":768,"byteStride":32,"target":34962},{"buffer":0,"byteOffset":768,"byteLength":768,"byteStride":32,"target":34962},{"buffer":0,"byteOffset":1536,"byteLength":768,"byteStride":32,"target":34962},{"buffer":0,"byteOffset":2304,"byteLength":144,"target":34963}],"buffers":[{"uri":"z-again.bin","byteLength":2448}],"materials":[{"pbrMetallicRoughness":{"baseColorFactor":[0.2917706498067336,0.1499597898006365,0.018500220124016656,1]}},{"pbrMetallicRoughness":{}}],"meshes":[{"primitives":[{"attributes":{"POSITION":0,"NORMAL":1,"TEXCOORD_0":2},"mode":4,"indices":9}]},{"primitives":[{"attributes":{"POSITION":0,"NORMAL":1,"TEXCOORD_0":2},"mode":4,"material":0,"indices":9}]},{"primitives":[{"attributes":{"POSITION":3,"NORMAL":4,"TEXCOORD_0":5},"mode":4,"material":0,"indices":9}]},{"primitives":[{"attributes":{"POSITION":6,"NORMAL":7,"TEXCOORD_0":8},"mode":4,"material":0,"indices":9}]},{"primitives":[{"attributes":{"POSITION":0,"NORMAL":1,"TEXCOORD_0":2},"mode":4,"material":1,"indices":9}]}],"nodes":[{"name":"Rectangle_8","extras":{"name":"Rectangle 8"},"translation":[93.24687194824219,214.50355529785156,55.97550582885742],"rotation":[-0.02524033110948861,0.9975783604187715,-0.06452388734131714,0.006083458888166374],"scale":[1.0000000873056518,0.9999999957007382,0.8824873438986041],"mesh":0},{"name":"Rectangle_11","extras":{"name":"Rectangle 11"},"translation":[-10.118063926696777,86.72681427001953,70.91991424560547],"rotation":[-0.02524033110948861,0.9975783604187715,-0.06452388734131714,0.006083458888166374],"scale":[1.0000000873056518,0.9999999957007382,0.8824873438986041],"mesh":1},{"name":"Rectangle_10","extras":{"name":"Rectangle 10"},"translation":[18.385683059692383,119.51322937011719,67.1160659790039],"rotation":[-0.02524033110948861,0.9975783604187715,-0.06452388734131714,0.006083458888166374],"scale":[1.0000000873056518,0.9999999957007382,0.8824873438986041],"mesh":1},{"name":"Rectangle_9","extras":{"name":"Rectangle 9"},"translation":[42.275142669677734,151.31507873535156,63.36809539794922],"rotation":[-0.02524033110948861,0.9975783604187715,-0.06452388734131714,0.006083458888166374],"scale":[1.0000000873056518,0.9999999957007382,0.8824873438986041],"mesh":0},{"name":"Rectangle_7","extras":{"name":"Rectangle 7"},"translation":[67.67445373535156,182.3338623046875,59.74498748779297],"rotation":[-0.02524033110948861,0.9975783604187715,-0.06452388734131714,0.006083458888166374],"scale":[1.0000000873056518,0.9999999957007382,0.8824873438986041],"mesh":1},{"name":"Rectangle_5","extras":{"name":"Rectangle 5"},"translation":[-45.1616096496582,52.3581428527832,78.38572692871094],"rotation":[-0.025240331111918254,0.9975783603231202,-0.06452388878856939,0.006083459212973661],"mesh":2},{"name":"Rectangle_4","extras":{"name":"Rectangle 4"},"translation":[-0.7160919904708862,243.77720642089844,54.28387451171875],"rotation":[-0.025240331111918254,0.9975783603231202,-0.06452388878856939,0.006083459212973661],"mesh":3},{"name":"Directional_Light","extras":{"name":"Directional Light"},"rotation":[-0.11089558919029438,0.36626326118054897,0.26772564988939707,0.8842377328511408],"extensions":{"KHR_lights_punctual":{"light":0}}},{"name":"Scene","extras":{"name":"Scene"},"children":[0,1,2,3,4,5,6,7]},{"scale":[0.009999999776482582,0.009999999776482582,0.009999999776482582],"children":[8]},{"name":"zim_z_icon-editor.glb","children":[9]},{"name":"Rectangle_8","extras":{"name":"Rectangle 8"},"translation":[93.24687194824219,214.50355529785156,55.97550582885742],"rotation":[-0.02524033110948861,0.9975783604187715,-0.06452388734131714,0.006083458888166374],"scale":[1.0000000873056518,0.9999999957007382,0.8824873438986041],"mesh":4},{"name":"Rectangle_11","extras":{"name":"Rectangle 11"},"translation":[-10.118063926696777,86.72681427001953,70.91991424560547],"rotation":[-0.02524033110948861,0.9975783604187715,-0.06452388734131714,0.006083458888166374],"scale":[1.0000000873056518,0.9999999957007382,0.8824873438986041],"mesh":1},{"name":"Rectangle_10","extras":{"name":"Rectangle 10"},"translation":[18.385683059692383,119.51322937011719,67.1160659790039],"rotation":[-0.02524033110948861,0.9975783604187715,-0.06452388734131714,0.006083458888166374],"scale":[1.0000000873056518,0.9999999957007382,0.8824873438986041],"mesh":1},{"name":"Rectangle_9","extras":{"name":"Rectangle 9"},"translation":[42.275142669677734,151.31507873535156,63.36809539794922],"rotation":[-0.02524033110948861,0.9975783604187715,-0.06452388734131714,0.006083458888166374],"scale":[1.0000000873056518,0.9999999957007382,0.8824873438986041],"mesh":4},{"name":"Rectangle_7","extras":{"name":"Rectangle 7"},"translation":[67.67445373535156,182.3338623046875,59.74498748779297],"rotation":[-0.02524033110948861,0.9975783604187715,-0.06452388734131714,0.006083458888166374],"scale":[1.0000000873056518,0.9999999957007382,0.8824873438986041],"mesh":1},{"name":"Rectangle_5","extras":{"name":"Rectangle 5"},"translation":[-45.1616096496582,52.3581428527832,78.38572692871094],"rotation":[-0.025240331111918254,0.9975783603231202,-0.06452388878856939,0.006083459212973661],"mesh":2},{"name":"Rectangle_4","extras":{"name":"Rectangle 4"},"translation":[-0.7160919904708862,243.77720642089844,54.28387451171875],"rotation":[-0.025240331111918254,0.9975783603231202,-0.06452388878856939,0.006083459212973661],"mesh":3},{"name":"Directional_Light","extras":{"name":"Directional Light"},"rotation":[-0.11089558919029438,0.36626326118054897,0.26772564988939707,0.8842377328511408],"extensions":{"KHR_lights_punctual":{"light":1}}},{"name":"Scene_1","extras":{"name":"Scene"},"children":[11,12,13,14,15,16,17,18]},{"scale":[0.009999999776482582,0.009999999776482582,0.009999999776482582],"children":[19]},{"name":"zim_z_icon-editorglb","extras":{"name":"zim_z_icon-editor.glb"},"children":[20]},{"name":"scene-threeeditor.gltf","children":[21]}],"scenes":[{"name":"Scene","nodes":[10,22]}],"scene":0,"extensionsUsed":["KHR_lights_punctual"],"extensions":{"KHR_lights_punctual":{"lights":[{"type":"directional","name":"Directional_Light"},{"type":"directional","name":"Directional_Light"}]}}}