{"asset":{"generator":"glTF-Transform v3.5.1","version":"2.0"},"accessors":[{"type":"VEC3","componentType":5126,"count":24,"max":[134.2869110107422,1.3163182735443115,32],"min":[49.516109466552734,-25.397335052490234,0],"bufferView":0,"byteOffset":0},{"type":"VEC3","componentType":5126,"count":24,"bufferView":0,"byteOffset":12},{"type":"VEC2","componentType":5126,"count":24,"bufferView":0,"byteOffset":24},{"type":"SCALAR","componentType":5125,"count":36,"bufferView":1,"byteOffset":0},{"type":"VEC3","componentType":5126,"count":24,"max":[134.2869110107422,1.932807445526123,32],"min":[-53.778587341308594,-25.919607162475586,0],"bufferView":2,"byteOffset":0},{"type":"VEC3","componentType":5126,"count":24,"bufferView":2,"byteOffset":12},{"type":"VEC2","componentType":5126,"count":24,"bufferView":2,"byteOffset":24},{"type":"VEC3","componentType":5126,"count":24,"max":[134.2869110107422,0.8308987021446228,32],"min":[-73.74115753173828,-29.181285858154297,0],"bufferView":3,"byteOffset":0},{"type":"VEC3","componentType":5126,"count":24,"bufferView":3,"byteOffset":12},{"type":"VEC2","componentType":5126,"count":24,"bufferView":3,"byteOffset":24}],"bufferViews":[{"buffer":0,"byteOffset":0,"byteLength":768,"byteStride":32,"target":34962},{"buffer":0,"byteOffset":768,"byteLength":144,"target":34963},{"buffer":1,"byteOffset":0,"byteLength":768,"byteStride":32,"target":34962},{"buffer":2,"byteOffset":0,"byteLength":768,"byteStride":32,"target":34962}],"buffers":[{"uri":"Z-gltfeditor_1.bin","byteLength":912},{"uri":"Z-gltfeditor_2.bin","byteLength":768},{"uri":"Z-gltfeditor_3.bin","byteLength":768}],"materials":[{"pbrMetallicRoughness":{"baseColorFactor":[0.3333333333333333,0.6470588235294118,0.5019607843137255,1]}},{"pbrMetallicRoughness":{"baseColorFactor":[0.3137254901960784,0.2901960784313726,0.5647058823529412,1]}}],"meshes":[{"primitives":[{"attributes":{"POSITION":0,"NORMAL":1,"TEXCOORD_0":2},"mode":4,"material":0,"indices":3}]},{"primitives":[{"attributes":{"POSITION":0,"NORMAL":1,"TEXCOORD_0":2},"mode":4,"material":1,"indices":3}]},{"primitives":[{"attributes":{"POSITION":4,"NORMAL":5,"TEXCOORD_0":6},"mode":4,"material":1,"indices":3}]},{"primitives":[{"attributes":{"POSITION":7,"NORMAL":8,"TEXCOORD_0":9},"mode":4,"material":1,"indices":3}]}],"nodes":[{"name":"Rectangle_8","translation":[93.24687194824219,214.50355529785156,55.97550582885742],"rotation":[-0.025240329585743106,0.9975783603301184,-0.06452388935924665,0.006083458356589657],"scale":[1.000000206545272,0.9999999955160653,0.8824874049167152],"mesh":0},{"name":"Rectangle_11","translation":[-10.118063926696777,86.72681427001953,70.91991424560547],"rotation":[-0.025240329585743106,0.9975783603301184,-0.06452388935924665,0.006083458356589657],"scale":[1.000000206545272,0.9999999955160653,0.8824874049167152],"mesh":1},{"name":"Rectangle_10","translation":[18.385683059692383,119.51322937011719,67.1160659790039],"rotation":[-0.025240329585743106,0.9975783603301184,-0.06452388935924665,0.006083458356589657],"scale":[1.000000206545272,0.9999999955160653,0.8824874049167152],"mesh":1},{"name":"Rectangle_9","translation":[42.275142669677734,151.31507873535156,63.36809539794922],"rotation":[-0.025240329585743106,0.9975783603301184,-0.06452388935924665,0.006083458356589657],"scale":[1.000000206545272,0.9999999955160653,0.8824874049167152],"mesh":0},{"name":"Rectangle_7","translation":[67.67445373535156,182.3338623046875,59.74498748779297],"rotation":[-0.025240329585743106,0.9975783603301184,-0.06452388935924665,0.006083458356589657],"scale":[1.000000206545272,0.9999999955160653,0.8824874049167152],"mesh":1},{"name":"Rectangle_5","translation":[-45.1616096496582,52.3581428527832,78.38572692871094],"rotation":[-0.025240330787364325,0.9975783598406979,-0.0645238963089347,0.006083459929508419],"mesh":2},{"name":"Rectangle_4","translation":[-0.7160919904708862,243.77720642089844,54.28387451171875],"rotation":[-0.025240330787364325,0.9975783598406979,-0.0645238963089347,0.006083459929508419],"mesh":3},{"name":"Directional_Light","rotation":[-0.11089558924776935,0.3662632613424584,0.2677256500357091,0.8842377320883242],"extensions":{"KHR_lights_punctual":{"light":0}}},{"name":"Scene","children":[0,1,2,3,4,5,6,7]},{"scale":[0.009999999776482582,0.009999999776482582,0.009999999776482582],"children":[8]},{"name":"zim_z_icon-editor.glb","children":[9]}],"scenes":[{"name":"Scene","nodes":[10]}],"scene":0,"extensionsUsed":["KHR_lights_punctual"],"extensionsRequired":["KHR_lights_punctual"],"extensions":{"KHR_lights_punctual":{"lights":[{"type":"directional","name":"Directional_Light"}]}}}