{
  "asset": {
    "version": "2.0",
    "generator": "gltfeditor.com"
  },
  "buffers": [
    {
      "uri": "data:application/octet-stream;base64,",
      "byteLength": 912
    },
    {
      "uri": "data:application/octet-stream;base64,",
      "byteLength": 912
    },
    {
      "uri": "data:application/octet-stream;base64,",
      "byteLength": 912
    },
    {
      "uri": "data:application/octet-stream;base64,",
      "byteLength": 912
    },
    {
      "uri": "data:application/octet-stream;base64,",
      "byteLength": 912
    },
    {
      "uri": "data:application/octet-stream;base64,",
      "byteLength": 912
    },
    {
      "uri": "data:application/octet-stream;base64,",
      "byteLength": 912
    }
  ],
  "bufferViews": [
    {
      "buffer": 0,
      "byteOffset": 0,
      "byteLength": 288,
      "byteStride": 12,
      "target": 34962
    },
    {
      "buffer": 0,
      "byteOffset": 288,
      "byteLength": 288,
      "byteStride": 12,
      "target": 34962
    },
    {
      "buffer": 0,
      "byteOffset": 576,
      "byteLength": 192,
      "byteStride": 8,
      "target": 34962
    },
    {
      "buffer": 0,
      "byteOffset": 768,
      "byteLength": 144,
      "target": 34963
    },
    {
      "buffer": 1,
      "byteOffset": 0,
      "byteLength": 288,
      "byteStride": 12,
      "target": 34962
    },
    {
      "buffer": 1,
      "byteOffset": 288,
      "byteLength": 288,
      "byteStride": 12,
      "target": 34962
    },
    {
      "buffer": 1,
      "byteOffset": 576,
      "byteLength": 192,
      "byteStride": 8,
      "target": 34962
    },
    {
      "buffer": 1,
      "byteOffset": 768,
      "byteLength": 144,
      "target": 34963
    },
    {
      "buffer": 2,
      "byteOffset": 0,
      "byteLength": 288,
      "byteStride": 12,
      "target": 34962
    },
    {
      "buffer": 2,
      "byteOffset": 288,
      "byteLength": 288,
      "byteStride": 12,
      "target": 34962
    },
    {
      "buffer": 2,
      "byteOffset": 576,
      "byteLength": 192,
      "byteStride": 8,
      "target": 34962
    },
    {
      "buffer": 2,
      "byteOffset": 768,
      "byteLength": 144,
      "target": 34963
    },
    {
      "buffer": 3,
      "byteOffset": 0,
      "byteLength": 288,
      "byteStride": 12,
      "target": 34962
    },
    {
      "buffer": 3,
      "byteOffset": 288,
      "byteLength": 288,
      "byteStride": 12,
      "target": 34962
    },
    {
      "buffer": 3,
      "byteOffset": 576,
      "byteLength": 192,
      "byteStride": 8,
      "target": 34962
    },
    {
      "buffer": 3,
      "byteOffset": 768,
      "byteLength": 144,
      "target": 34963
    },
    {
      "buffer": 4,
      "byteOffset": 0,
      "byteLength": 288,
      "byteStride": 12,
      "target": 34962
    },
    {
      "buffer": 4,
      "byteOffset": 288,
      "byteLength": 288,
      "byteStride": 12,
      "target": 34962
    },
    {
      "buffer": 4,
      "byteOffset": 576,
      "byteLength": 192,
      "byteStride": 8,
      "target": 34962
    },
    {
      "buffer": 4,
      "byteOffset": 768,
      "byteLength": 144,
      "target": 34963
    },
    {
      "buffer": 5,
      "byteOffset": 0,
      "byteLength": 288,
      "byteStride": 12,
      "target": 34962
    },
    {
      "buffer": 5,
      "byteOffset": 288,
      "byteLength": 288,
      "byteStride": 12,
      "target": 34962
    },
    {
      "buffer": 5,
      "byteOffset": 576,
      "byteLength": 192,
      "byteStride": 8,
      "target": 34962
    },
    {
      "buffer": 5,
      "byteOffset": 768,
      "byteLength": 144,
      "target": 34963
    },
    {
      "buffer": 6,
      "byteOffset": 0,
      "byteLength": 288,
      "byteStride": 12,
      "target": 34962
    },
    {
      "buffer": 6,
      "byteOffset": 288,
      "byteLength": 288,
      "byteStride": 12,
      "target": 34962
    },
    {
      "buffer": 6,
      "byteOffset": 576,
      "byteLength": 192,
      "byteStride": 8,
      "target": 34962
    },
    {
      "buffer": 6,
      "byteOffset": 768,
      "byteLength": 144,
      "target": 34963
    }
  ],
  "accessors": [
    {
      "bufferView": 0,
      "byteOffset": 0,
      "componentType": 5126,
      "normalized": false,
      "count": 24,
      "min": [
        49.516109466552734,
        -25.397335052490234,
        0
      ],
      "max": [
        134.2869110107422,
        1.3163182735443115,
        32
      ],
      "type": "VEC3"
    },
    {
      "bufferView": 1,
      "byteOffset": 0,
      "componentType": 5126,
      "normalized": false,
      "count": 24,
      "min": [
        -0.7479833364486694,
        -0.999954104423523,
        -1
      ],
      "max": [
        0.6740544438362122,
        0.9997998476028442,
        1
      ],
      "type": "VEC3"
    },
    {
      "bufferView": 2,
      "byteOffset": 0,
      "componentType": 5126,
      "normalized": false,
      "count": 24,
      "min": [
        0,
        0
      ],
      "max": [
        1,
        1
      ],
      "type": "VEC2"
    },
    {
      "bufferView": 3,
      "byteOffset": 0,
      "componentType": 5125,
      "normalized": false,
      "count": 36,
      "min": [
        0
      ],
      "max": [
        23
      ],
      "type": "SCALAR"
    },
    {
      "bufferView": 4,
      "byteOffset": 0,
      "componentType": 5126,
      "normalized": false,
      "count": 24,
      "min": [
        49.516109466552734,
        -25.397335052490234,
        0
      ],
      "max": [
        134.2869110107422,
        1.3163182735443115,
        32
      ],
      "type": "VEC3"
    },
    {
      "bufferView": 5,
      "byteOffset": 0,
      "componentType": 5126,
      "normalized": false,
      "count": 24,
      "min": [
        -0.7479833364486694,
        -0.999954104423523,
        -1
      ],
      "max": [
        0.6740544438362122,
        0.9997998476028442,
        1
      ],
      "type": "VEC3"
    },
    {
      "bufferView": 6,
      "byteOffset": 0,
      "componentType": 5126,
      "normalized": false,
      "count": 24,
      "min": [
        0,
        0
      ],
      "max": [
        1,
        1
      ],
      "type": "VEC2"
    },
    {
      "bufferView": 7,
      "byteOffset": 0,
      "componentType": 5125,
      "normalized": false,
      "count": 36,
      "min": [
        0
      ],
      "max": [
        23
      ],
      "type": "SCALAR"
    },
    {
      "bufferView": 8,
      "byteOffset": 0,
      "componentType": 5126,
      "normalized": false,
      "count": 24,
      "min": [
        49.516109466552734,
        -25.397335052490234,
        0
      ],
      "max": [
        134.2869110107422,
        1.3163182735443115,
        32
      ],
      "type": "VEC3"
    },
    {
      "bufferView": 9,
      "byteOffset": 0,
      "componentType": 5126,
      "normalized": false,
      "count": 24,
      "min": [
        -0.7479833364486694,
        -0.999954104423523,
        -1
      ],
      "max": [
        0.6740544438362122,
        0.9997998476028442,
        1
      ],
      "type": "VEC3"
    },
    {
      "bufferView": 10,
      "byteOffset": 0,
      "componentType": 5126,
      "normalized": false,
      "count": 24,
      "min": [
        0,
        0
      ],
      "max": [
        1,
        1
      ],
      "type": "VEC2"
    },
    {
      "bufferView": 11,
      "byteOffset": 0,
      "componentType": 5125,
      "normalized": false,
      "count": 36,
      "min": [
        0
      ],
      "max": [
        23
      ],
      "type": "SCALAR"
    },
    {
      "bufferView": 12,
      "byteOffset": 0,
      "componentType": 5126,
      "normalized": false,
      "count": 24,
      "min": [
        49.516109466552734,
        -25.397335052490234,
        0
      ],
      "max": [
        134.2869110107422,
        1.3163182735443115,
        32
      ],
      "type": "VEC3"
    },
    {
      "bufferView": 13,
      "byteOffset": 0,
      "componentType": 5126,
      "normalized": false,
      "count": 24,
      "min": [
        -0.7479833364486694,
        -0.999954104423523,
        -1
      ],
      "max": [
        0.6740544438362122,
        0.9997998476028442,
        1
      ],
      "type": "VEC3"
    },
    {
      "bufferView": 14,
      "byteOffset": 0,
      "componentType": 5126,
      "normalized": false,
      "count": 24,
      "min": [
        0,
        0
      ],
      "max": [
        1,
        1
      ],
      "type": "VEC2"
    },
    {
      "bufferView": 15,
      "byteOffset": 0,
      "componentType": 5125,
      "normalized": false,
      "count": 36,
      "min": [
        0
      ],
      "max": [
        23
      ],
      "type": "SCALAR"
    },
    {
      "bufferView": 16,
      "byteOffset": 0,
      "componentType": 5126,
      "normalized": false,
      "count": 24,
      "min": [
        49.516109466552734,
        -25.397335052490234,
        0
      ],
      "max": [
        134.2869110107422,
        1.3163182735443115,
        32
      ],
      "type": "VEC3"
    },
    {
      "bufferView": 17,
      "byteOffset": 0,
      "componentType": 5126,
      "normalized": false,
      "count": 24,
      "min": [
        -0.7479833364486694,
        -0.999954104423523,
        -1
      ],
      "max": [
        0.6740544438362122,
        0.9997998476028442,
        1
      ],
      "type": "VEC3"
    },
    {
      "bufferView": 18,
      "byteOffset": 0,
      "componentType": 5126,
      "normalized": false,
      "count": 24,
      "min": [
        0,
        0
      ],
      "max": [
        1,
        1
      ],
      "type": "VEC2"
    },
    {
      "bufferView": 19,
      "byteOffset": 0,
      "componentType": 5125,
      "normalized": false,
      "count": 36,
      "min": [
        0
      ],
      "max": [
        23
      ],
      "type": "SCALAR"
    },
    {
      "bufferView": 20,
      "byteOffset": 0,
      "componentType": 5126,
      "normalized": false,
      "count": 24,
      "min": [
        -53.778587341308594,
        -25.919607162475586,
        0
      ],
      "max": [
        134.2869110107422,
        1.932807445526123,
        32
      ],
      "type": "VEC3"
    },
    {
      "bufferView": 21,
      "byteOffset": 0,
      "componentType": 5126,
      "normalized": false,
      "count": 24,
      "min": [
        -0.7048541903495789,
        -0.9999756217002869,
        -1
      ],
      "max": [
        0.5831154584884644,
        0.9999738335609436,
        1
      ],
      "type": "VEC3"
    },
    {
      "bufferView": 22,
      "byteOffset": 0,
      "componentType": 5126,
      "normalized": false,
      "count": 24,
      "min": [
        0,
        0
      ],
      "max": [
        1,
        1
      ],
      "type": "VEC2"
    },
    {
      "bufferView": 23,
      "byteOffset": 0,
      "componentType": 5125,
      "normalized": false,
      "count": 36,
      "min": [
        0
      ],
      "max": [
        23
      ],
      "type": "SCALAR"
    },
    {
      "bufferView": 24,
      "byteOffset": 0,
      "componentType": 5126,
      "normalized": false,
      "count": 24,
      "min": [
        -73.74115753173828,
        -29.181285858154297,
        0
      ],
      "max": [
        134.2869110107422,
        0.8308987021446228,
        32
      ],
      "type": "VEC3"
    },
    {
      "bufferView": 25,
      "byteOffset": 0,
      "componentType": 5126,
      "normalized": false,
      "count": 24,
      "min": [
        -0.7048541903495789,
        -0.9997042417526245,
        -1
      ],
      "max": [
        0.5831154584884644,
        0.999921441078186,
        1
      ],
      "type": "VEC3"
    },
    {
      "bufferView": 26,
      "byteOffset": 0,
      "componentType": 5126,
      "normalized": false,
      "count": 24,
      "min": [
        0,
        0
      ],
      "max": [
        1,
        1
      ],
      "type": "VEC2"
    },
    {
      "bufferView": 27,
      "byteOffset": 0,
      "componentType": 5125,
      "normalized": false,
      "count": 36,
      "min": [
        0
      ],
      "max": [
        23
      ],
      "type": "SCALAR"
    }
  ],
  "scene": 0,
  "scenes": [
    {
      "nodes": [
        14
      ],
      "name": "Scene"
    }
  ],
  "nodes": [
    {
      "name": "Rectangle_8",
      "matrix": [
        -0.9986520409584045,
        -0.051143478602170944,
        -0.008880246430635452,
        0,
        -0.04957335814833641,
        0.990399181842804,
        -0.1290423721075058,
        0,
        0.013585594482719898,
        -0.1133362427353859,
        -0.8750739097595215,
        0,
        93.24687194824219,
        214.50355529785156,
        55.97550582885742,
        1
      ],
      "mesh": 0
    },
    {
      "name": "Rectangle_11",
      "matrix": [
        -0.9986520409584045,
        -0.051143478602170944,
        -0.008880246430635452,
        0,
        -0.04957335814833641,
        0.990399181842804,
        -0.1290423721075058,
        0,
        0.013585594482719898,
        -0.1133362427353859,
        -0.8750739097595215,
        0,
        -10.118063926696777,
        86.72681427001953,
        70.91991424560547,
        1
      ],
      "mesh": 1
    },
    {
      "name": "Rectangle_10",
      "matrix": [
        -0.9986520409584045,
        -0.051143478602170944,
        -0.008880246430635452,
        0,
        -0.04957335814833641,
        0.990399181842804,
        -0.1290423721075058,
        0,
        0.013585594482719898,
        -0.1133362427353859,
        -0.8750739097595215,
        0,
        18.385683059692383,
        119.51322937011719,
        67.1160659790039,
        1
      ],
      "mesh": 2
    },
    {
      "name": "Rectangle_9",
      "matrix": [
        -0.9986520409584045,
        -0.051143478602170944,
        -0.008880246430635452,
        0,
        -0.04957335814833641,
        0.990399181842804,
        -0.1290423721075058,
        0,
        0.013585594482719898,
        -0.1133362427353859,
        -0.8750739097595215,
        0,
        42.275142669677734,
        151.31507873535156,
        63.36809539794922,
        1
      ],
      "mesh": 3
    },
    {
      "name": "Rectangle_7",
      "matrix": [
        -0.9986520409584045,
        -0.051143478602170944,
        -0.008880246430635452,
        0,
        -0.04957335814833641,
        0.990399181842804,
        -0.1290423721075058,
        0,
        0.013585594482719898,
        -0.1133362427353859,
        -0.8750739097595215,
        0,
        67.67445373535156,
        182.3338623046875,
        59.74498748779297,
        1
      ],
      "mesh": 4
    },
    {
      "name": "Rectangle_5",
      "matrix": [
        -0.9986518025398254,
        -0.051143474876880646,
        -0.008880246430635452,
        0,
        -0.04957335442304611,
        0.990399181842804,
        -0.1290423721075058,
        0,
        0.015394664369523525,
        -0.12842819094657898,
        -0.9915992617607117,
        0,
        -45.1616096496582,
        52.3581428527832,
        78.38572692871094,
        1
      ],
      "mesh": 5
    },
    {
      "name": "Rectangle_4",
      "matrix": [
        -0.9986518025398254,
        -0.051143474876880646,
        -0.008880246430635452,
        0,
        -0.04957335442304611,
        0.990399181842804,
        -0.1290423721075058,
        0,
        0.015394664369523525,
        -0.12842819094657898,
        -0.9915992617607117,
        0,
        -0.7160919904708862,
        243.77720642089844,
        54.28387451171875,
        1
      ],
      "mesh": 6
    },
    {
      "matrix": [
        1,
        0,
        0,
        0,
        0,
        1,
        0,
        0,
        0,
        0,
        1,
        0,
        0,
        0,
        -1,
        1
      ]
    },
    {
      "name": "Directional_Light",
      "children": [
        7
      ],
      "matrix": [
        0.588348388671875,
        0.3922322690486908,
        -0.7071067690849304,
        0,
        -0.5547001957893372,
        0.8320502638816833,
        1.9117459615358712e-8,
        0,
        0.588348388671875,
        0.3922322690486908,
        0.7071067690849304,
        0,
        0,
        0,
        0,
        1
      ],
      "extensions": {
        "KHR_lights_punctual": {
          "light": 0
        }
      }
    },
    {
      "name": "Camera",
      "matrix": [
        0.9983294010162354,
        0.004703216254711151,
        -0.05758694186806679,
        0,
        0.0022930509876459837,
        0.9926711320877075,
        0.12082543224096298,
        0,
        0.057733163237571716,
        -0.120755635201931,
        0.9910020232200623,
        0,
        516.24853515625,
        -1079.7939453125,
        8961.515625,
        1
      ]
    },
    {
      "children": [
        9
      ],
      "matrix": [
        0.9819843769073486,
        3.541310578114576e-10,
        -0.18896204233169556,
        0,
        -0.015381623059511185,
        0.9966814517974854,
        -0.07993411272764206,
        0,
        0.18833495676517487,
        0.08140059560537338,
        0.9787256717681885,
        0,
        188.33497619628906,
        81.40059661865234,
        978.7256469726562,
        1
      ]
    },
    {
      "name": "Default_Ambient_Light",
      "matrix": [
        1,
        0,
        0,
        0,
        0,
        1,
        0,
        0,
        0,
        0,
        1,
        0,
        0,
        1,
        0,
        1
      ]
    },
    {
      "name": "Scene",
      "children": [
        0,
        1,
        2,
        3,
        4,
        5,
        6,
        8,
        10,
        11
      ]
    },
    {
      "children": [
        12
      ],
      "matrix": [
        0.009999999776482582,
        0,
        0,
        0,
        0,
        0.009999999776482582,
        0,
        0,
        0,
        0,
        0.009999999776482582,
        0,
        0,
        0,
        0,
        1
      ]
    },
    {
      "name": "zim_z_icon-editor.glb",
      "children": [
        13
      ]
    }
  ],
  "meshes": [
    {
      "primitives": [
        {
          "material": 0,
          "mode": 4,
          "attributes": {
            "POSITION": 0,
            "NORMAL": 1,
            "TEXCOORD_0": 2
          },
          "indices": 3
        }
      ]
    },
    {
      "primitives": [
        {
          "material": 1,
          "mode": 4,
          "attributes": {
            "POSITION": 4,
            "NORMAL": 5,
            "TEXCOORD_0": 6
          },
          "indices": 7
        }
      ]
    },
    {
      "primitives": [
        {
          "material": 1,
          "mode": 4,
          "attributes": {
            "POSITION": 8,
            "NORMAL": 9,
            "TEXCOORD_0": 10
          },
          "indices": 11
        }
      ]
    },
    {
      "primitives": [
        {
          "material": 0,
          "mode": 4,
          "attributes": {
            "POSITION": 12,
            "NORMAL": 13,
            "TEXCOORD_0": 14
          },
          "indices": 15
        }
      ]
    },
    {
      "primitives": [
        {
          "material": 1,
          "mode": 4,
          "attributes": {
            "POSITION": 16,
            "NORMAL": 17,
            "TEXCOORD_0": 18
          },
          "indices": 19
        }
      ]
    },
    {
      "primitives": [
        {
          "material": 1,
          "mode": 4,
          "attributes": {
            "POSITION": 20,
            "NORMAL": 21,
            "TEXCOORD_0": 22
          },
          "indices": 23
        }
      ]
    },
    {
      "primitives": [
        {
          "material": 1,
          "mode": 4,
          "attributes": {
            "POSITION": 24,
            "NORMAL": 25,
            "TEXCOORD_0": 26
          },
          "indices": 27
        }
      ]
    }
  ],
  "materials": [
    {
      "name": "",
      "pbrMetallicRoughness": {
        "baseColorFactor": [
          0.3333333333333333,
          0.6470588235294118,
          0.5019607843137255,
          1
        ],
        "metallicFactor": 1,
        "roughnessFactor": 1
      },
      "emissiveFactor": [
        0,
        0,
        0
      ],
      "alphaMode": "OPAQUE",
      "doubleSided": false
    },
    {
      "name": "",
      "pbrMetallicRoughness": {
        "baseColorFactor": [
          0.3137254901960784,
          0.2901960784313726,
          0.5647058823529412,
          1
        ],
        "metallicFactor": 1,
        "roughnessFactor": 1
      },
      "emissiveFactor": [
        0,
        0,
        0
      ],
      "alphaMode": "OPAQUE",
      "doubleSided": false
    }
  ],
  "extensionsUsed": [
    "KHR_lights_punctual"
  ],
  "extensionsRequired": [
    "KHR_lights_punctual"
  ],
  "extensions": {
    "KHR_lights_punctual": {
      "lights": [
        {
          "name": "Directional_Light",
          "type": "directional"
        }
      ]
    }
  }
}