{"asset":{"generator":"glTF-Transform v3.5.1","version":"2.0","extras":{"author":"jboynton (https://sketchfab.com/jboynton)","license":"CC-BY-4.0 (http://creativecommons.org/licenses/by/4.0/)","source":"https://sketchfab.com/3d-models/hobie-cat-193a57aa767a475f8d12e7dd25592a50","title":"Hobie Cat"}},"accessors":[{"type":"VEC3","componentType":5126,"count":99,"bufferView":0,"byteOffset":0},{"type":"VEC3","componentType":5126,"count":99,"max":[0.47524601221084595,-0.5637170076370239,0.04839849844574928],"min":[0.47306498885154724,-0.5657910108566284,0.043939799070358276],"bufferView":0,"byteOffset":12},{"type":"VEC4","componentType":5126,"count":99,"bufferView":0,"byteOffset":24},{"type":"VEC2","componentType":5126,"count":99,"bufferView":0,"byteOffset":40},{"type":"SCALAR","componentType":5125,"count":120,"bufferView":1,"byteOffset":0},{"type":"VEC3","componentType":5126,"count":100,"bufferView":2,"byteOffset":0},{"type":"VEC3","componentType":5126,"count":100,"max":[0.5410599708557129,0.5873669981956482,0.29682299494743347],"min":[0.07170379906892776,-0.6109470129013062,-0.2044849991798401],"bufferView":2,"byteOffset":12},{"type":"VEC4","componentType":5126,"count":100,"bufferView":2,"byteOffset":24},{"type":"VEC2","componentType":5126,"count":100,"bufferView":2,"byteOffset":40},{"type":"SCALAR","componentType":5125,"count":150,"bufferView":3,"byteOffset":0},{"type":"VEC3","componentType":5126,"count":40,"bufferView":4,"byteOffset":0},{"type":"VEC3","componentType":5126,"count":40,"max":[0.13118399679660797,-0.4939210116863251,0.048798900097608566],"min":[-0.3409459888935089,-0.5030930042266846,0.042759500443935394],"bufferView":4,"byteOffset":12},{"type":"VEC4","componentType":5126,"count":40,"bufferView":4,"byteOffset":24},{"type":"VEC2","componentType":5126,"count":40,"bufferView":4,"byteOffset":40},{"type":"SCALAR","componentType":5125,"count":84,"bufferView":5,"byteOffset":0},{"type":"VEC3","componentType":5126,"count":117,"bufferView":6,"byteOffset":0},{"type":"VEC3","componentType":5126,"count":117,"max":[-0.3388440012931824,-0.5711110234260559,0.2881830036640167],"min":[-0.4671019911766052,-0.6607379913330078,-0.19584399461746216],"bufferView":6,"byteOffset":12},{"type":"VEC4","componentType":5126,"count":117,"bufferView":6,"byteOffset":24},{"type":"VEC2","componentType":5126,"count":117,"bufferView":6,"byteOffset":40},{"type":"SCALAR","componentType":5125,"count":315,"bufferView":7,"byteOffset":0},{"type":"VEC3","componentType":5126,"count":128,"bufferView":8,"byteOffset":0},{"type":"VEC3","componentType":5126,"count":128,"max":[-0.46361300349235535,-0.6558290123939514,0.29016101360321045],"min":[-0.48194000124931335,-0.6714760065078735,-0.19782300293445587],"bufferView":8,"byteOffset":12},{"type":"VEC4","componentType":5126,"count":128,"bufferView":8,"byteOffset":24},{"type":"VEC2","componentType":5126,"count":128,"bufferView":8,"byteOffset":40},{"type":"SCALAR","componentType":5125,"count":264,"bufferView":9,"byteOffset":0},{"type":"VEC3","componentType":5126,"count":166,"bufferView":10,"byteOffset":0},{"type":"VEC3","componentType":5126,"count":166,"max":[0.14468500018119812,-0.6185709834098816,0.3205089867115021],"min":[-0.31352901458740234,-0.6536759734153748,-0.2281699925661087],"bufferView":10,"byteOffset":12},{"type":"VEC4","componentType":5126,"count":166,"bufferView":10,"byteOffset":24},{"type":"VEC2","componentType":5126,"count":166,"bufferView":10,"byteOffset":40},{"type":"SCALAR","componentType":5125,"count":282,"bufferView":11,"byteOffset":0},{"type":"VEC3","componentType":5126,"count":1240,"bufferView":12,"byteOffset":0},{"type":"VEC3","componentType":5126,"count":1240,"max":[0.12344899773597717,-0.5991209745407104,0.27650800347328186],"min":[-0.33814701437950134,-0.6210049986839294,-0.18448899686336517],"bufferView":12,"byteOffset":12},{"type":"VEC4","componentType":5126,"count":1240,"bufferView":12,"byteOffset":24},{"type":"VEC2","componentType":5126,"count":1240,"bufferView":12,"byteOffset":40},{"type":"SCALAR","componentType":5125,"count":1860,"bufferView":13,"byteOffset":0},{"type":"VEC3","componentType":5126,"count":124,"bufferView":14,"byteOffset":0},{"type":"VEC3","componentType":5126,"count":124,"max":[-0.46844199299812317,-0.6463559865951538,0.2872300148010254],"min":[-0.5182999968528748,-0.8264170289039612,-0.19497700035572052],"bufferView":14,"byteOffset":12},{"type":"VEC4","componentType":5126,"count":124,"bufferView":14,"byteOffset":24},{"type":"VEC2","componentType":5126,"count":124,"bufferView":14,"byteOffset":40},{"type":"SCALAR","componentType":5125,"count":336,"bufferView":15,"byteOffset":0},{"type":"VEC3","componentType":5126,"count":268,"bufferView":16,"byteOffset":0},{"type":"VEC3","componentType":5126,"count":268,"max":[0.15531699359416962,-0.5900750160217285,0.3021169900894165],"min":[-0.3583129942417145,-0.6268860101699829,-0.21009400486946106],"bufferView":16,"byteOffset":12},{"type":"VEC4","componentType":5126,"count":268,"bufferView":16,"byteOffset":24},{"type":"VEC2","componentType":5126,"count":268,"bufferView":16,"byteOffset":40},{"type":"SCALAR","componentType":5125,"count":624,"bufferView":17,"byteOffset":0},{"type":"VEC3","componentType":5126,"count":44,"bufferView":18,"byteOffset":0},{"type":"VEC3","componentType":5126,"count":44,"max":[0.1300860047340393,-0.5980669856071472,0.2855370044708252],"min":[-0.32149699330329895,-0.6221789717674255,-0.19351400434970856],"bufferView":18,"byteOffset":12},{"type":"VEC4","componentType":5126,"count":44,"bufferView":18,"byteOffset":24},{"type":"VEC2","componentType":5126,"count":44,"bufferView":18,"byteOffset":40},{"type":"SCALAR","componentType":5125,"count":84,"bufferView":19,"byteOffset":0},{"type":"VEC3","componentType":5126,"count":100,"bufferView":20,"byteOffset":0},{"type":"VEC3","componentType":5126,"count":100,"max":[0.12534700334072113,0.9254239797592163,0.0471682995557785],"min":[-0.34004101157188416,-0.4903140068054199,-0.01782660000026226],"bufferView":20,"byteOffset":12},{"type":"VEC4","componentType":5126,"count":100,"bufferView":20,"byteOffset":24},{"type":"VEC2","componentType":5126,"count":100,"bufferView":20,"byteOffset":40},{"type":"SCALAR","componentType":5125,"count":360,"bufferView":21,"byteOffset":0},{"type":"VEC3","componentType":5126,"count":66,"bufferView":22,"byteOffset":0},{"type":"VEC3","componentType":5126,"count":66,"max":[0.46838900446891785,0.4426330029964447,0.04934589937329292],"min":[0.12205500155687332,-0.5677610039710999,0.028774699196219444],"bufferView":22,"byteOffset":12},{"type":"VEC4","componentType":5126,"count":66,"bufferView":22,"byteOffset":24},{"type":"VEC2","componentType":5126,"count":66,"bufferView":22,"byteOffset":40},{"type":"SCALAR","componentType":5125,"count":192,"bufferView":23,"byteOffset":0},{"type":"VEC3","componentType":5126,"count":151,"bufferView":24,"byteOffset":0},{"type":"VEC3","componentType":5126,"count":151,"max":[0.1515049934387207,0.9351469874382019,0.054892901331186295],"min":[0.02347799949347973,-0.6015130281448364,0.03744539991021156],"bufferView":24,"byteOffset":12},{"type":"VEC4","componentType":5126,"count":151,"bufferView":24,"byteOffset":24},{"type":"VEC2","componentType":5126,"count":151,"bufferView":24,"byteOffset":40},{"type":"SCALAR","componentType":5125,"count":390,"bufferView":25,"byteOffset":0},{"type":"VEC3","componentType":5126,"count":972,"bufferView":26,"byteOffset":0},{"type":"VEC3","componentType":5126,"count":972,"max":[0.5677719712257385,-0.6080120205879211,0.3242270052433014],"min":[-0.46316200494766235,-0.7453129887580872,-0.23188899457454681],"bufferView":26,"byteOffset":12},{"type":"VEC4","componentType":5126,"count":972,"bufferView":26,"byteOffset":24},{"type":"VEC2","componentType":5126,"count":972,"bufferView":26,"byteOffset":40},{"type":"SCALAR","componentType":5125,"count":2598,"bufferView":27,"byteOffset":0}],"bufferViews":[{"buffer":0,"byteOffset":0,"byteLength":4752,"byteStride":48,"target":34962},{"buffer":0,"byteOffset":4752,"byteLength":480,"target":34963},{"buffer":1,"byteOffset":0,"byteLength":4800,"byteStride":48,"target":34962},{"buffer":1,"byteOffset":4800,"byteLength":600,"target":34963},{"buffer":2,"byteOffset":0,"byteLength":1920,"byteStride":48,"target":34962},{"buffer":2,"byteOffset":1920,"byteLength":336,"target":34963},{"buffer":3,"byteOffset":0,"byteLength":5616,"byteStride":48,"target":34962},{"buffer":3,"byteOffset":5616,"byteLength":1260,"target":34963},{"buffer":4,"byteOffset":0,"byteLength":6144,"byteStride":48,"target":34962},{"buffer":4,"byteOffset":6144,"byteLength":1056,"target":34963},{"buffer":5,"byteOffset":0,"byteLength":7968,"byteStride":48,"target":34962},{"buffer":5,"byteOffset":7968,"byteLength":1128,"target":34963},{"buffer":6,"byteOffset":0,"byteLength":59520,"byteStride":48,"target":34962},{"buffer":6,"byteOffset":59520,"byteLength":7440,"target":34963},{"buffer":7,"byteOffset":0,"byteLength":5952,"byteStride":48,"target":34962},{"buffer":7,"byteOffset":5952,"byteLength":1344,"target":34963},{"buffer":8,"byteOffset":0,"byteLength":12864,"byteStride":48,"target":34962},{"buffer":8,"byteOffset":12864,"byteLength":2496,"target":34963},{"buffer":9,"byteOffset":0,"byteLength":2112,"byteStride":48,"target":34962},{"buffer":9,"byteOffset":2112,"byteLength":336,"target":34963},{"buffer":10,"byteOffset":0,"byteLength":4800,"byteStride":48,"target":34962},{"buffer":10,"byteOffset":4800,"byteLength":1440,"target":34963},{"buffer":11,"byteOffset":0,"byteLength":3168,"byteStride":48,"target":34962},{"buffer":11,"byteOffset":3168,"byteLength":768,"target":34963},{"buffer":12,"byteOffset":0,"byteLength":7248,"byteStride":48,"target":34962},{"buffer":12,"byteOffset":7248,"byteLength":1560,"target":34963},{"buffer":13,"byteOffset":0,"byteLength":46656,"byteStride":48,"target":34962},{"buffer":13,"byteOffset":46656,"byteLength":10392,"target":34963}],"samplers":[{"magFilter":9729,"minFilter":9987,"wrapS":10497,"wrapT":10497}],"textures":[{"source":0,"sampler":0},{"source":2,"sampler":0},{"source":1,"sampler":0},{"source":3,"sampler":0},{"source":5,"sampler":0},{"source":4,"sampler":0},{"source":6,"sampler":0},{"source":8,"sampler":0},{"source":7,"sampler":0},{"source":9,"sampler":0},{"source":11,"sampler":0},{"source":10,"sampler":0},{"source":12,"sampler":0},{"source":14,"sampler":0},{"source":13,"sampler":0},{"source":15,"sampler":0},{"source":17,"sampler":0},{"source":16,"sampler":0},{"source":18,"sampler":0},{"source":20,"sampler":0},{"source":19,"sampler":0},{"source":21,"sampler":0},{"source":23,"sampler":0},{"source":22,"sampler":0},{"source":24,"sampler":0},{"source":26,"sampler":0},{"source":25,"sampler":0},{"source":27,"sampler":0},{"source":28,"sampler":0},{"source":29,"sampler":0},{"source":30,"sampler":0},{"source":32,"sampler":0},{"source":31,"sampler":0},{"source":33,"sampler":0},{"source":35,"sampler":0},{"source":34,"sampler":0},{"source":36,"sampler":0},{"source":38,"sampler":0},{"source":37,"sampler":0}],"images":[{"mimeType":"image/jpeg","uri":"baseColor_1.jpg"},{"mimeType":"image/jpeg","uri":"metallicRoughness_1.jpg"},{"mimeType":"image/jpeg","uri":"normal_1.jpg"},{"mimeType":"image/jpeg","uri":"baseColor_2.jpg"},{"mimeType":"image/jpeg","uri":"metallicRoughness_2.jpg"},{"mimeType":"image/jpeg","uri":"normal_2.jpg"},{"mimeType":"image/jpeg","uri":"baseColor_3.jpg"},{"mimeType":"image/jpeg","uri":"metallicRoughness_3.jpg"},{"mimeType":"image/jpeg","uri":"normal_3.jpg"},{"mimeType":"image/jpeg","uri":"baseColor_4.jpg"},{"mimeType":"image/jpeg","uri":"metallicRoughness_4.jpg"},{"mimeType":"image/jpeg","uri":"normal_4.jpg"},{"mimeType":"image/jpeg","uri":"baseColor_5.jpg"},{"mimeType":"image/jpeg","uri":"metallicRoughness_5.jpg"},{"mimeType":"image/jpeg","uri":"normal_5.jpg"},{"mimeType":"image/jpeg","uri":"baseColor_6.jpg"},{"mimeType":"image/jpeg","uri":"metallicRoughness_6.jpg"},{"mimeType":"image/jpeg","uri":"normal_6.jpg"},{"mimeType":"image/jpeg","uri":"baseColor_7.jpg"},{"mimeType":"image/jpeg","uri":"metallicRoughness_7.jpg"},{"mimeType":"image/jpeg","uri":"normal_7.jpg"},{"mimeType":"image/jpeg","uri":"baseColor_8.jpg"},{"mimeType":"image/jpeg","uri":"metallicRoughness_8.jpg"},{"mimeType":"image/jpeg","uri":"normal_8.jpg"},{"mimeType":"image/jpeg","uri":"baseColor_9.jpg"},{"mimeType":"image/jpeg","uri":"metallicRoughness_9.jpg"},{"mimeType":"image/jpeg","uri":"normal_9.jpg"},{"mimeType":"image/jpeg","uri":"metallicRoughness_10.jpg"},{"mimeType":"image/jpeg","uri":"baseColor_10.jpg"},{"mimeType":"image/jpeg","uri":"metallicRoughness_11.jpg"},{"mimeType":"image/jpeg","uri":"baseColor_11.jpg"},{"mimeType":"image/jpeg","uri":"metallicRoughness_12.jpg"},{"mimeType":"image/jpeg","uri":"normal_10.jpg"},{"mimeType":"image/jpeg","uri":"baseColor_12.jpg"},{"mimeType":"image/jpeg","uri":"metallicRoughness_13.jpg"},{"mimeType":"image/jpeg","uri":"normal_11.jpg"},{"mimeType":"image/jpeg","uri":"baseColor_13.jpg"},{"mimeType":"image/jpeg","uri":"metallicRoughness_14.jpg"},{"mimeType":"image/jpeg","uri":"normal_12.jpg"}],"buffers":[{"uri":"hobiecat-nowater_1.bin","byteLength":5232},{"uri":"hobiecat-nowater_2.bin","byteLength":5400},{"uri":"hobiecat-nowater_3.bin","byteLength":2256},{"uri":"hobiecat-nowater_4.bin","byteLength":6876},{"uri":"hobiecat-nowater_5.bin","byteLength":7200},{"uri":"hobiecat-nowater_6.bin","byteLength":9096},{"uri":"hobiecat-nowater_7.bin","byteLength":66960},{"uri":"hobiecat-nowater_8.bin","byteLength":7296},{"uri":"hobiecat-nowater_9.bin","byteLength":15360},{"uri":"hobiecat-nowater_10.bin","byteLength":2448},{"uri":"hobiecat-nowater_11.bin","byteLength":6240},{"uri":"hobiecat-nowater_12.bin","byteLength":3936},{"uri":"hobiecat-nowater_13.bin","byteLength":8808},{"uri":"hobiecat-nowater_14.bin","byteLength":57048}],"materials":[{"name":"phong1","alphaMode":"BLEND","doubleSided":true,"pbrMetallicRoughness":{"baseColorTexture":{"index":0},"metallicRoughnessTexture":{"index":2}},"normalTexture":{"index":1}},{"name":"Hobie_Cat_Ropes","doubleSided":true,"pbrMetallicRoughness":{"baseColorTexture":{"index":3},"metallicRoughnessTexture":{"index":5}},"normalTexture":{"index":4}},{"name":"Hobie_Cat_Boom","doubleSided":true,"pbrMetallicRoughness":{"baseColorTexture":{"index":6},"metallicRoughnessTexture":{"index":8}},"normalTexture":{"index":7}},{"name":"Hobie_Cat_RutterControl","doubleSided":true,"pbrMetallicRoughness":{"baseColorTexture":{"index":9},"metallicRoughnessTexture":{"index":11}},"normalTexture":{"index":10}},{"name":"Hobie_Cat_RudderBrackets","doubleSided":true,"pbrMetallicRoughness":{"baseColorTexture":{"index":12},"metallicRoughnessTexture":{"index":14}},"normalTexture":{"index":13}},{"name":"Hobie_Cat_Legs","doubleSided":true,"pbrMetallicRoughness":{"baseColorTexture":{"index":15},"metallicRoughnessTexture":{"index":17}},"normalTexture":{"index":16}},{"name":"Hobie_Cat_CrossStitch","doubleSided":true,"pbrMetallicRoughness":{"baseColorTexture":{"index":18},"metallicRoughnessTexture":{"index":20}},"normalTexture":{"index":19}},{"name":"Hobie_Cat_Rudders","doubleSided":true,"pbrMetallicRoughness":{"baseColorTexture":{"index":21},"metallicRoughnessTexture":{"index":23}},"normalTexture":{"index":22}},{"name":"Hobie_Cat_SeatingShell","doubleSided":true,"pbrMetallicRoughness":{"baseColorTexture":{"index":24},"metallicRoughnessTexture":{"index":26}},"normalTexture":{"index":25}},{"name":"Hobie_Cat_Seating","doubleSided":true,"pbrMetallicRoughness":{"baseColorTexture":{"index":24},"metallicRoughnessTexture":{"index":27}},"normalTexture":{"index":25}},{"name":"phong17","doubleSided":true,"pbrMetallicRoughness":{"baseColorTexture":{"index":28},"metallicRoughnessTexture":{"index":29}},"normalTexture":{"index":1}},{"name":"Hobie_Cat_FrontSail","doubleSided":true,"pbrMetallicRoughness":{"baseColorTexture":{"index":30},"metallicRoughnessTexture":{"index":32}},"normalTexture":{"index":31}},{"name":"Hobie_Cat_Mast","doubleSided":true,"pbrMetallicRoughness":{"baseColorTexture":{"index":33},"metallicRoughnessTexture":{"index":35}},"normalTexture":{"index":34}},{"name":"Hobie_Cat_Hull","doubleSided":true,"pbrMetallicRoughness":{"baseColorTexture":{"index":36},"metallicRoughnessTexture":{"index":38}},"normalTexture":{"index":37}}],"meshes":[{"primitives":[{"attributes":{"NORMAL":0,"POSITION":1,"TANGENT":2,"TEXCOORD_0":3},"mode":4,"material":0,"indices":4}]},{"primitives":[{"attributes":{"NORMAL":5,"POSITION":6,"TANGENT":7,"TEXCOORD_0":8},"mode":4,"material":1,"indices":9}]},{"primitives":[{"attributes":{"NORMAL":10,"POSITION":11,"TANGENT":12,"TEXCOORD_0":13},"mode":4,"material":2,"indices":14}]},{"primitives":[{"attributes":{"NORMAL":15,"POSITION":16,"TANGENT":17,"TEXCOORD_0":18},"mode":4,"material":3,"indices":19}]},{"primitives":[{"attributes":{"NORMAL":20,"POSITION":21,"TANGENT":22,"TEXCOORD_0":23},"mode":4,"material":4,"indices":24}]},{"primitives":[{"attributes":{"NORMAL":25,"POSITION":26,"TANGENT":27,"TEXCOORD_0":28},"mode":4,"material":5,"indices":29}]},{"primitives":[{"attributes":{"NORMAL":30,"POSITION":31,"TANGENT":32,"TEXCOORD_0":33},"mode":4,"material":6,"indices":34}]},{"primitives":[{"attributes":{"NORMAL":35,"POSITION":36,"TANGENT":37,"TEXCOORD_0":38},"mode":4,"material":7,"indices":39}]},{"primitives":[{"attributes":{"NORMAL":40,"POSITION":41,"TANGENT":42,"TEXCOORD_0":43},"mode":4,"material":8,"indices":44}]},{"primitives":[{"attributes":{"NORMAL":45,"POSITION":46,"TANGENT":47,"TEXCOORD_0":48},"mode":4,"material":9,"indices":49}]},{"primitives":[{"attributes":{"NORMAL":50,"POSITION":51,"TANGENT":52,"TEXCOORD_0":53},"mode":4,"material":10,"indices":54}]},{"primitives":[{"attributes":{"NORMAL":55,"POSITION":56,"TANGENT":57,"TEXCOORD_0":58},"mode":4,"material":11,"indices":59}]},{"primitives":[{"attributes":{"NORMAL":60,"POSITION":61,"TANGENT":62,"TEXCOORD_0":63},"mode":4,"material":12,"indices":64}]},{"primitives":[{"attributes":{"NORMAL":65,"POSITION":66,"TANGENT":67,"TEXCOORD_0":68},"mode":4,"material":13,"indices":69}]}],"nodes":[{"name":"defaultMaterial","mesh":0},{"name":"Hobie_Cat1","children":[0]},{"name":"defaultMaterial","mesh":1},{"name":"Hobie_Cat1","children":[2]},{"name":"defaultMaterial","mesh":2},{"name":"Hobie_Cat1","children":[4]},{"name":"defaultMaterial","mesh":3},{"name":"Hobie_Cat1","children":[6]},{"name":"defaultMaterial","mesh":4},{"name":"Hobie_Cat1","children":[8]},{"name":"defaultMaterial","mesh":5},{"name":"Hobie_Cat1","children":[10]},{"name":"defaultMaterial","mesh":6},{"name":"Hobie_Cat1","children":[12]},{"name":"defaultMaterial","mesh":7},{"name":"Hobie_Cat1","children":[14]},{"name":"defaultMaterial","mesh":8},{"name":"Hobie_Cat1","children":[16]},{"name":"defaultMaterial","mesh":9},{"name":"Hobie_Cat1","children":[18]},{"name":"defaultMaterial","mesh":10},{"name":"Hobie_Cat1","children":[20]},{"name":"defaultMaterial","mesh":11},{"name":"Hobie_Cat1","children":[22]},{"name":"defaultMaterial","mesh":12},{"name":"Hobie_Cat1","children":[24]},{"name":"defaultMaterial","mesh":13},{"name":"Hobie_Cat1","children":[26]},{"name":"Collada visual scene group","rotation":[0.7071067690849298,0,0,0.7071067932881652],"children":[1,3,5,7,9,11,13,15,17,19,21,23,25,27]},{"name":"Sketchfab_model","rotation":[-0.7071067690849298,0,0,0.7071067932881652],"children":[28]}],"scenes":[{"name":"Sketchfab_Scene","nodes":[29]}],"scene":0}