{"asset":{"generator":"glTF-Transform v4.2.1","version":"2.0"},"accessors":[{"type":"SCALAR","componentType":5123,"count":2706,"bufferView":0,"byteOffset":0},{"type":"VEC3","componentType":5126,"count":475,"max":[0.0844459980726242,0.09000000357627869,0.02199999988079071],"min":[-0.07599999755620956,-0.09308899939060211,-0.003000000026077032],"bufferView":1,"byteOffset":0},{"type":"VEC3","componentType":5126,"count":475,"bufferView":1,"byteOffset":12}],"bufferViews":[{"buffer":0,"byteOffset":0,"byteLength":5412,"target":34963},{"buffer":0,"byteOffset":5412,"byteLength":11400,"byteStride":24,"target":34962}],"buffers":[{"uri":"fort1.bin","byteLength":16812}],"materials":[{"name":"lambert2SG.001","pbrMetallicRoughness":{"roughnessFactor":0.5,"metallicFactor":0.5}}],"meshes":[{"primitives":[{"attributes":{"POSITION":1,"COLOR_0":2},"mode":4,"material":0,"indices":0}]}],"nodes":[{"name":"Mesh_Mesh_head_geo.001_lambert2SG.001","rotation":[-0.7071067690849299,0,0,0.7071067932881651],"mesh":0}],"scenes":[{"name":"Tinkercad GLTF Scene","nodes":[0]}],"scene":0}