{"asset":{"generator":"glTF-Transform v3.5.1","version":"2.0","extras":{"author":"taigo (https://sketchfab.com/taigo)","license":"CC-BY-4.0 (http://creativecommons.org/licenses/by/4.0/)","source":"https://sketchfab.com/3d-models/lowpoly-vr-glasses-c37e201c0f4a49deb2415b4949e011e7","title":"Lowpoly VR glasses"}},"accessors":[{"type":"VEC3","componentType":5126,"count":1690,"bufferView":0,"byteOffset":0},{"type":"VEC3","componentType":5126,"count":1690,"max":[1.1823475360870361,0.560720682144165,0.4797530472278595],"min":[-1.1823475360870361,-0.560720682144165,-3.171079397201538],"bufferView":0,"byteOffset":12},{"type":"VEC2","componentType":5126,"count":1690,"bufferView":0,"byteOffset":24},{"type":"SCALAR","componentType":5125,"count":5244,"bufferView":1,"byteOffset":0},{"type":"VEC3","componentType":5126,"count":1768,"bufferView":2,"byteOffset":0},{"type":"VEC3","componentType":5126,"count":1768,"max":[1.0990917682647705,0.5959938764572144,0.43064478039741516],"min":[-1.0990917682647705,-0.5959938764572144,-2.9957077503204346],"bufferView":2,"byteOffset":12},{"type":"VEC2","componentType":5126,"count":1768,"bufferView":2,"byteOffset":24},{"type":"SCALAR","componentType":5125,"count":5298,"bufferView":3,"byteOffset":0},{"type":"VEC3","componentType":5126,"count":388,"bufferView":4,"byteOffset":0},{"type":"VEC3","componentType":5126,"count":388,"max":[0.786750316619873,0.30561211705207825,-0.05275237560272217],"min":[-0.786750316619873,-0.30561211705207825,-0.11183901131153107],"bufferView":4,"byteOffset":12},{"type":"VEC2","componentType":5126,"count":388,"bufferView":4,"byteOffset":24},{"type":"SCALAR","componentType":5125,"count":1164,"bufferView":5,"byteOffset":0}],"bufferViews":[{"buffer":0,"byteOffset":0,"byteLength":54080,"byteStride":32,"target":34962},{"buffer":0,"byteOffset":54080,"byteLength":20976,"target":34963},{"buffer":1,"byteOffset":0,"byteLength":56576,"byteStride":32,"target":34962},{"buffer":1,"byteOffset":56576,"byteLength":21192,"target":34963},{"buffer":2,"byteOffset":0,"byteLength":12416,"byteStride":32,"target":34962},{"buffer":2,"byteOffset":12416,"byteLength":4656,"target":34963}],"buffers":[{"uri":"vr-quest_1.bin","byteLength":75056},{"uri":"vr-quest_2.bin","byteLength":77768},{"uri":"vr-quest_3.bin","byteLength":17072}],"materials":[{"name":"Branco","doubleSided":true,"pbrMetallicRoughness":{"baseColorFactor":[0.8,0.8,0.8,1],"roughnessFactor":0.8,"metallicFactor":0}},{"name":"Preto","doubleSided":true,"pbrMetallicRoughness":{"baseColorFactor":[0.023529411764705882,0.023529411764705882,0.023529411764705882,1],"roughnessFactor":0.5,"metallicFactor":0}},{"name":"Lente","doubleSided":true,"pbrMetallicRoughness":{"baseColorFactor":[0.8,0.8,0.8,1],"roughnessFactor":0}}],"meshes":[{"primitives":[{"attributes":{"NORMAL":0,"POSITION":1,"TEXCOORD_0":2},"mode":4,"material":0,"indices":3}]},{"primitives":[{"attributes":{"NORMAL":4,"POSITION":5,"TEXCOORD_0":6},"mode":4,"material":1,"indices":7}]},{"primitives":[{"attributes":{"NORMAL":8,"POSITION":9,"TEXCOORD_0":10},"mode":4,"material":2,"indices":11}]}],"nodes":[{"name":"Object_4","mesh":0},{"name":"Object_5","mesh":1},{"name":"Object_6","mesh":2},{"name":"Cube_0","translation":[0,0.09495082497596741,0],"scale":[1.0015450716018677,1.0015450716018677,1.0015450716018677],"children":[0,1,2]},{"name":"GLTF_SceneRootNode","rotation":[0.7071067690849298,0,0,0.7071067932881652],"children":[3]},{"name":"root","children":[4]},{"name":"Sketchfab_model","rotation":[-0.7071067690849301,0,0,0.7071067932881648],"scale":[0.09642737358808517,0.09642737358808522,0.09642737358808522],"children":[5]}],"scenes":[{"name":"Sketchfab_Scene","nodes":[6]}],"scene":0}