{"asset":{"generator":"glTF-Transform v3.5.1","version":"2.0","extras":{"author":"romasharf (https://sketchfab.com/romasharf)","license":"CC-BY-4.0 (http://creativecommons.org/licenses/by/4.0/)","source":"https://sketchfab.com/3d-models/sci-fi-corner-table-34aba9c373cb42eea1f05f75c4cdffe4","title":"Sci-fi Corner Table"}},"accessors":[{"type":"VEC3","componentType":5126,"count":1338,"bufferView":0,"byteOffset":0},{"type":"VEC3","componentType":5126,"count":1338,"max":[0.7998742461204529,0.7998741865158081,0.8052001595497131],"min":[-3.987473178312939e-7,-1.2759119272232056e-7,0],"bufferView":0,"byteOffset":12},{"type":"VEC4","componentType":5126,"count":1338,"bufferView":0,"byteOffset":24},{"type":"VEC2","componentType":5126,"count":1338,"bufferView":0,"byteOffset":40},{"type":"SCALAR","componentType":5125,"count":2940,"bufferView":1,"byteOffset":0}],"bufferViews":[{"buffer":0,"byteOffset":0,"byteLength":64224,"byteStride":48,"target":34962},{"buffer":0,"byteOffset":64224,"byteLength":11760,"target":34963}],"samplers":[{"magFilter":9729,"minFilter":9987,"wrapS":10497,"wrapT":10497}],"textures":[{"source":0,"sampler":0},{"source":2,"sampler":0},{"source":1,"sampler":0}],"images":[{"mimeType":"image/jpeg","uri":"baseColor_1.jpg"},{"mimeType":"image/jpeg","uri":"metallicRoughness_1.jpg"},{"mimeType":"image/jpeg","uri":"normal_1.jpg"}],"buffers":[{"uri":"sci-fi-table.bin","byteLength":75984}],"materials":[{"name":"table","doubleSided":true,"pbrMetallicRoughness":{"baseColorTexture":{"index":0},"metallicRoughnessTexture":{"index":2}},"normalTexture":{"index":1}}],"meshes":[{"primitives":[{"attributes":{"NORMAL":0,"POSITION":1,"TANGENT":2,"TEXCOORD_0":3},"mode":4,"material":0,"indices":4}]}],"nodes":[{"name":"side_low_table_0","mesh":0},{"name":"side_low","rotation":[-0.7071068286895736,0,0,0.7071067336835183],"scale":[100,100.00000000000088,100.00000000000088],"children":[0]},{"name":"RootNode","children":[1]},{"name":"f0f4d92907454b46ac3cd044805d3b09.fbx","rotation":[0.7071067690849298,0,0,0.7071067932881652],"children":[2]},{"name":"Sketchfab_model","rotation":[-0.7071067690849298,0,0,0.7071067932881652],"children":[3]}],"scenes":[{"name":"Sketchfab_Scene","nodes":[4]}],"scene":0}