{"asset":{"generator":"glTF-Transform v3.5.1","version":"2.0","extras":{"author":"patrakeevasveta (https://sketchfab.com/patrakeevasveta)","license":"CC-BY-4.0 (http://creativecommons.org/licenses/by/4.0/)","source":"https://sketchfab.com/3d-models/jack-o-lantern-cda283e2838844559748720ee075d0df","title":"Jack-o'-lantern"}},"accessors":[{"type":"VEC3","componentType":5126,"count":402,"max":[0.6915532946586609,0.6684406995773315,0.4926835298538208],"min":[-0.7463632225990295,-0.7575286030769348,-0.014927716925740242],"bufferView":0,"byteOffset":0},{"type":"VEC3","componentType":5126,"count":402,"bufferView":0,"byteOffset":12},{"type":"VEC4","componentType":5126,"count":402,"bufferView":0,"byteOffset":24},{"type":"VEC2","componentType":5126,"count":402,"bufferView":0,"byteOffset":40},{"type":"VEC3","componentType":5126,"count":10502,"max":[2.274199962615967,2.2791290283203125,3.5584423542022705],"min":[-2.2795050144195557,-2.276963949203491,0.0023956298828125],"bufferView":1,"byteOffset":0},{"type":"VEC3","componentType":5126,"count":10502,"bufferView":1,"byteOffset":12},{"type":"VEC4","componentType":5126,"count":10502,"bufferView":1,"byteOffset":24},{"type":"VEC2","componentType":5126,"count":10502,"bufferView":1,"byteOffset":40},{"type":"VEC3","componentType":5126,"count":1970,"max":[1.3827941417694092,1.3823933601379395,1.811198353767395],"min":[-1.3823331594467163,-1.3807480335235596,1.561200499534607],"bufferView":2,"byteOffset":0},{"type":"VEC3","componentType":5126,"count":1970,"bufferView":2,"byteOffset":12},{"type":"VEC4","componentType":5126,"count":1970,"bufferView":2,"byteOffset":24},{"type":"VEC2","componentType":5126,"count":1970,"bufferView":2,"byteOffset":40},{"type":"VEC3","componentType":5126,"count":35,"max":[0.0071008820086717606,0.00710076279938221,0.321668803691864],"min":[-0.0071008820086717606,-0.007101001217961311,-1.1920928955078125e-7],"bufferView":3,"byteOffset":0},{"type":"VEC3","componentType":5126,"count":35,"bufferView":3,"byteOffset":12},{"type":"VEC4","componentType":5126,"count":35,"bufferView":3,"byteOffset":24},{"type":"VEC2","componentType":5126,"count":35,"bufferView":3,"byteOffset":40},{"type":"SCALAR","componentType":5125,"count":1917,"bufferView":4,"byteOffset":0},{"type":"SCALAR","componentType":5125,"count":57780,"bufferView":4,"byteOffset":7668},{"type":"SCALAR","componentType":5125,"count":8553,"bufferView":4,"byteOffset":238788},{"type":"SCALAR","componentType":5125,"count":144,"bufferView":4,"byteOffset":273000}],"bufferViews":[{"buffer":0,"byteOffset":0,"byteLength":19296,"byteStride":48,"target":34962},{"buffer":0,"byteOffset":19296,"byteLength":504096,"byteStride":48,"target":34962},{"buffer":0,"byteOffset":523392,"byteLength":94560,"byteStride":48,"target":34962},{"buffer":0,"byteOffset":617952,"byteLength":1680,"byteStride":48,"target":34962},{"buffer":0,"byteOffset":619632,"byteLength":273576,"target":34963}],"samplers":[{"magFilter":9729,"minFilter":9987,"wrapS":10497,"wrapT":10497}],"textures":[{"source":0,"sampler":0},{"source":2,"sampler":0},{"source":1,"sampler":0}],"images":[{"mimeType":"image/png","uri":"baseColor_1.png"},{"mimeType":"image/png","uri":"metallicRoughness_1.png"},{"mimeType":"image/png","uri":"normal_1.png"}],"buffers":[{"uri":"pumkin.bin","byteLength":893208}],"materials":[{"name":"Pumpkin","doubleSided":true,"pbrMetallicRoughness":{"metallicFactor":0,"baseColorTexture":{"index":0},"metallicRoughnessTexture":{"index":2}},"normalTexture":{"index":1}}],"meshes":[{"name":"Sphere.001_lp_Pumpkin_0","primitives":[{"attributes":{"NORMAL":1,"POSITION":0,"TANGENT":2,"TEXCOORD_0":3,"TEXCOORD_1":3,"TEXCOORD_2":3},"mode":4,"material":0,"indices":16}]},{"name":"Body_lp_Pumpkin_0","primitives":[{"attributes":{"NORMAL":5,"POSITION":4,"TANGENT":6,"TEXCOORD_0":7,"TEXCOORD_1":7,"TEXCOORD_2":7},"mode":4,"material":0,"indices":17}]},{"name":"BodyTop_lp_Pumpkin_0","primitives":[{"attributes":{"NORMAL":9,"POSITION":8,"TANGENT":10,"TEXCOORD_0":11,"TEXCOORD_1":11,"TEXCOORD_2":11},"mode":4,"material":0,"indices":18}]},{"name":"Cylinder_Pumpkin_0","primitives":[{"attributes":{"NORMAL":13,"POSITION":12,"TANGENT":14,"TEXCOORD_0":15,"TEXCOORD_1":15,"TEXCOORD_2":15},"mode":4,"material":0,"indices":19}]}],"nodes":[{"name":"Sketchfab_model","rotation":[-0.7071067811865475,0,0,0.7071067811865476],"scale":[0.0837884470820427,0.0837884470820427,0.0837884470820427],"children":[1]},{"name":"Pumpkin.fbx","rotation":[0.7071067811865475,0,0,0.7071067811865476],"scale":[0.009999999776482582,0.009999999776482582,0.009999999776482582],"children":[2]},{"name":"RootNode","children":[3,5,7,9,11,13,15,17,19,21,23,25,27,29,31,33,35,37,39,41,43,45,47,49,51,53,55]},{"name":"Sphere.001_lp","translation":[0.30072614550590515,361.4482727050781,0.3931722044944763],"rotation":[-0.7071068387877038,0,0,0.7071067235853866],"scale":[100,100.00000000000001,100.00000000000001],"children":[4]},{"name":"Sphere.001_lp_Pumpkin_0","mesh":0},{"name":"Body_lp","rotation":[-0.7071068387877038,0,0,0.7071067235853866],"scale":[100,100.00000000000001,100.00000000000001],"children":[6]},{"name":"Body_lp_Pumpkin_0","mesh":1},{"name":"BodyTop_lp","translation":[0,184.82162475585938,0],"rotation":[-0.7071068387877038,0,0,0.7071067235853866],"scale":[100,100.00000000000001,100.00000000000001],"children":[8]},{"name":"BodyTop_lp_Pumpkin_0","mesh":2},{"name":"Cylinder","translation":[-117.40904998779297,84.4141845703125,160.37022399902344],"rotation":[-0.5669225809870555,-2.8515925501184897e-17,2.8515922912631723e-17,0.8237710769182027],"scale":[100,100,100],"children":[10]},{"name":"Cylinder_Pumpkin_0","mesh":3},{"name":"Cylinder.001","translation":[-100.70929718017578,94.03589630126953,171.068115234375],"rotation":[-0.6226784033740035,-0.06852195390551606,0.054874655830213996,0.7775378575684194],"scale":[99.99999999999999,100.00000000000001,100.00000762939455],"children":[12]},{"name":"Cylinder.001_Pumpkin_0","mesh":3},{"name":"Cylinder.002","translation":[-85.9940414428711,101.10687255859375,183.2069091796875],"rotation":[-0.7071068387877038,0,0,0.7071067235853866],"scale":[100,100.00000000000001,100.00000000000001],"children":[14]},{"name":"Cylinder.002_Pumpkin_0","mesh":3},{"name":"Cylinder.003","translation":[-68.2210693359375,87.099853515625,183.37355041503906],"rotation":[-0.7048078939513385,0.056972924132596366,-0.05697291485052961,0.7048077791235668],"scale":[99.99999237060547,100.00000000000001,99.99999237060547],"children":[16]},{"name":"Cylinder.003_Pumpkin_0","mesh":3},{"name":"Cylinder.004","translation":[-49.301456451416016,75.59049224853516,181.84014892578125],"rotation":[-0.705510033840238,-0.04749330485912061,0.04749330278312227,0.7055100030014143],"scale":[100,99.99999999999999,99.99999999999999],"children":[18]},{"name":"Cylinder.004_Pumpkin_0","mesh":3},{"name":"Cylinder.005","translation":[-24.53396224975586,91.58972930908203,194.88351440429688],"rotation":[-0.7466066331926281,0.07714528585448191,-0.08794825810488152,0.6548986517313315],"scale":[99.99999999999999,100,100],"children":[20]},{"name":"Cylinder.005_Pumpkin_0","mesh":3},{"name":"Cylinder.006","translation":[-0.757165253162384,75.33805847167969,186.57632446289062],"rotation":[-0.6274685732511406,-0.06966319666632854,0.05651438773304723,0.7734574019243498],"scale":[99.99999999999999,100.00000762939453,100.00000000000001],"children":[22]},{"name":"Cylinder.006_Pumpkin_0","mesh":3},{"name":"Cylinder.007","translation":[25.6614990234375,90.268798828125,196.6897735595703],"rotation":[-0.6428328179295688,-0.08487481613697027,0.0719908654162466,0.7578783207580655],"scale":[100.00000762939455,100.00000762939455,100.00000000000001],"children":[24]},{"name":"Cylinder.007_Pumpkin_0","mesh":3},{"name":"Cylinder.008","translation":[50.098758697509766,76.06876373291016,180.8338623046875],"rotation":[-0.7007837315888292,0.09435138258727734,-0.09435137846304735,0.7007837009565989],"scale":[100.00000762939455,99.99999999999997,100.00000762939452],"children":[26]},{"name":"Cylinder.008_Pumpkin_0","mesh":3},{"name":"Cylinder.009","translation":[83.12208557128906,96.21299743652344,175.8708953857422],"rotation":[-0.6545600190326505,0.047943081591656785,-0.041656793664158746,0.7533374768011305],"scale":[99.99999237060548,99.99999999999999,99.99999999999999],"children":[28]},{"name":"Cylinder.009_Pumpkin_0","mesh":3},{"name":"Cylinder.010","translation":[117.41705322265625,84.7534408569336,160.37022399902344],"rotation":[-0.7036889076560786,-0.06943978321427148,0.06943978845682945,0.7036889607831152],"scale":[100.00000762939453,100,100.00000762939455],"children":[30]},{"name":"Cylinder.010_Pumpkin_0","mesh":3},{"name":"Cylinder.011","translation":[120.32283782958984,154.1834716796875,187.8408660888672],"rotation":[-1.3767877755408373e-7,0.7071068387876905,-0.707106723585373,1.376787693342165e-7],"scale":[99.99999999999999,99.99999999999999,100],"children":[32]},{"name":"Cylinder.011_Pumpkin_0","mesh":3},{"name":"Cylinder.012","translation":[99.04396057128906,138.56573486328125,188.0021209716797],"rotation":[-0.026424514872203875,0.7227038801140803,-0.6900978619352919,0.027672868195409043],"scale":[100.00000000000001,100.00000762939452,100.00000000000003],"children":[34]},{"name":"Cylinder.012_Pumpkin_0","mesh":3},{"name":"Cylinder.013","translation":[79.51170349121094,146.29905700683594,193.55706787109375],"rotation":[-1.3767877755408373e-7,0.7071068387876905,-0.707106723585373,1.376787693342165e-7],"scale":[99.99999999999999,99.99999999999999,100],"children":[36]},{"name":"Cylinder.013_Pumpkin_0","mesh":3},{"name":"Cylinder.014","translation":[64.69405364990234,145.7506103515625,200.30755615234375],"rotation":[0.05697286367247616,0.70480785655429,-0.7048078257461594,-0.05697286118211312],"scale":[99.99999999999999,99.99999999999999,100],"children":[38]},{"name":"Cylinder.014_Pumpkin_0","mesh":3},{"name":"Cylinder.015","translation":[42.3368034362793,135.51953125,205.01641845703125],"rotation":[0.049882922878447304,-0.668122328209598,0.7410137382496653,-0.04497653030354307],"scale":[99.99999237060545,100,100],"children":[40]},{"name":"Cylinder.015_Pumpkin_0","mesh":3},{"name":"Cylinder.016","translation":[17.292823791503906,137.2257537841797,211.28111267089844],"rotation":[-0.08688593433960058,-0.6650364251221746,0.737590889597374,0.07833943615834563],"scale":[100,99.99999999999999,100],"children":[42]},{"name":"Cylinder.016_Pumpkin_0","mesh":3},{"name":"Cylinder.017","translation":[-5.378026485443115,143.91542053222656,203.27940368652344],"rotation":[-0.06343031452457777,0.7042560734952934,-0.7042560427112824,0.06343031175195062],"scale":[99.99999237060545,99.99999999999999,99.99999237060545],"children":[44]},{"name":"Cylinder.017_Pumpkin_0","mesh":3},{"name":"Cylinder.018","translation":[-34.058719635009766,128.23211669921875,206.65623474121094],"rotation":[-0.0762007274994549,0.7243182763348066,-0.6804238367023813,0.08111649735497574],"scale":[99.99999237060544,100.0000076293945,100.00000762939452],"children":[46]},{"name":"Cylinder.018_Pumpkin_0","mesh":3},{"name":"Cylinder.019","translation":[-51.4415283203125,132.5306396484375,205.84890747070312],"rotation":[-0.09909942361101563,-0.6636465042884647,0.7360495961362075,0.08935106945857535],"scale":[99.99999999999999,100,100],"children":[48]},{"name":"Cylinder.019_Pumpkin_0","mesh":3},{"name":"Cylinder.020","translation":[-80.50189208984375,150.68910217285156,191.20614624023438],"rotation":[0.04490981382960216,0.7056792402232973,-0.7056791252535655,-0.04490980651286539],"scale":[99.9999923706055,100,99.99999237060547],"children":[50]},{"name":"Cylinder.020_Pumpkin_0","mesh":3},{"name":"Cylinder.021","translation":[-118.94415283203125,155.4208221435547,184.87051391601562],"rotation":[0.07117440011747775,-0.6856606178343587,0.7212667634527034,-0.0676607556666683],"scale":[99.99999237060547,100.00000000000001,100.00000762939453],"children":[52]},{"name":"Cylinder.021_Pumpkin_0","mesh":3},{"name":"Cylinder.022","translation":[-65.25828552246094,148.26092529296875,202.8277587890625],"rotation":[-0.0179938040089552,0.7068778146702459,-0.7068777837716346,0.017993803222421036],"scale":[100.00000000000003,100,100],"children":[54]},{"name":"Cylinder.022_Pumpkin_0","mesh":3},{"name":"Cylinder.023","translation":[74.94269561767578,90.59291076660156,180.8338623046875],"rotation":[-0.6409097996605804,-0.08417243747022345,0.0710131320995162,0.7596754336812351],"scale":[100.00000762939455,99.99999237060548,100.00000762939456],"children":[56]},{"name":"Cylinder.023_Pumpkin_0","mesh":3}],"scenes":[{"name":"Sketchfab_Scene","nodes":[0]}],"scene":0}