{"asset":{"generator":"glTF-Transform v3.5.1","version":"2.0","extras":{"author":"Sflex (https://sketchfab.com/Sflex)","license":"CC-BY-4.0 (http://creativecommons.org/licenses/by/4.0/)","source":"https://sketchfab.com/3d-models/sinterklaas-en-piet-915ef791635949ed9802d44bbd2e95aa","title":"Sinterklaas en Piet"}},"accessors":[{"type":"VEC3","componentType":5126,"count":80,"max":[109.05512237548828,-2.9113769528521516e-7,38.62205123901367],"min":[35.43307113647461,-15.748029708862305,-8.673617379884035e-18],"bufferView":0,"byteOffset":0},{"type":"SCALAR","componentType":5125,"count":240,"bufferView":1,"byteOffset":0},{"type":"VEC3","componentType":5126,"count":480,"bufferView":2,"byteOffset":0},{"type":"VEC3","componentType":5126,"count":480,"max":[109.05512237548828,-2.9113769528521516e-7,38.62205123901367],"min":[35.43307113647461,-15.748029708862305,-8.673617379884035e-18],"bufferView":2,"byteOffset":12},{"type":"SCALAR","componentType":5125,"count":720,"bufferView":3,"byteOffset":0},{"type":"VEC3","componentType":5126,"count":2628,"max":[132.90325927734375,-5.6965155601501465,78.93217468261719],"min":[22.25530242919922,-6.266998767852783,0.14963309466838837],"bufferView":4,"byteOffset":0},{"type":"SCALAR","componentType":5125,"count":5256,"bufferView":5,"byteOffset":0},{"type":"VEC3","componentType":5126,"count":2688,"max":[132.90325927734375,-5.6965155601501465,78.93217468261719],"min":[22.25530242919922,-7.6771650314331055,0.14963309466838837],"bufferView":6,"byteOffset":0},{"type":"SCALAR","componentType":5125,"count":2764,"bufferView":7,"byteOffset":0},{"type":"VEC3","componentType":5126,"count":15824,"bufferView":8,"byteOffset":0},{"type":"VEC3","componentType":5126,"count":15824,"max":[132.90325927734375,-5.6965155601501465,78.93217468261719],"min":[22.25530242919922,-7.6771650314331055,0.14963309466838837],"bufferView":8,"byteOffset":12},{"type":"SCALAR","componentType":5125,"count":32148,"bufferView":9,"byteOffset":0}],"bufferViews":[{"buffer":0,"byteOffset":0,"byteLength":960,"byteStride":12,"target":34962},{"buffer":0,"byteOffset":960,"byteLength":960,"target":34963},{"buffer":1,"byteOffset":0,"byteLength":11520,"byteStride":24,"target":34962},{"buffer":1,"byteOffset":11520,"byteLength":2880,"target":34963},{"buffer":2,"byteOffset":0,"byteLength":31536,"byteStride":12,"target":34962},{"buffer":2,"byteOffset":31536,"byteLength":21024,"target":34963},{"buffer":3,"byteOffset":0,"byteLength":32256,"byteStride":12,"target":34962},{"buffer":3,"byteOffset":32256,"byteLength":11056,"target":34963},{"buffer":4,"byteOffset":0,"byteLength":379776,"byteStride":24,"target":34962},{"buffer":4,"byteOffset":379776,"byteLength":128592,"target":34963}],"buffers":[{"uri":"sintenpiet_1.bin","byteLength":1920},{"uri":"sintenpiet_2.bin","byteLength":14400},{"uri":"sintenpiet_3.bin","byteLength":52560},{"uri":"sintenpiet_4.bin","byteLength":43312},{"uri":"sintenpiet_5.bin","byteLength":508368}],"materials":[{"name":"edge_color585858255","pbrMetallicRoughness":{"roughnessFactor":0.6,"metallicFactor":0}},{"name":"Color_M07","pbrMetallicRoughness":{"baseColorFactor":[0.03137254901960784,0.03137254901960784,0.03137254901960784,1],"roughnessFactor":0.6,"metallicFactor":0.48000146286160106}}],"meshes":[{"primitives":[{"attributes":{"POSITION":0},"mode":1,"material":0,"indices":1}]},{"primitives":[{"attributes":{"NORMAL":2,"POSITION":3},"mode":4,"material":1,"indices":4}]},{"primitives":[{"attributes":{"POSITION":5},"mode":1,"material":0,"indices":6}]},{"primitives":[{"attributes":{"POSITION":7},"mode":1,"material":0,"indices":8}]},{"primitives":[{"attributes":{"NORMAL":9,"POSITION":10},"mode":4,"material":0,"indices":11}]}],"nodes":[{"name":"Material3","mesh":0},{"name":"Material2","mesh":1},{"name":"Material4","mesh":2},{"name":"Material3","mesh":3},{"name":"Material2","mesh":4},{"name":"Collada visual scene group","children":[0,1,2,3,4]},{"name":"Sketchfab_model","rotation":[-0.7071067690849298,0,0,0.7071067932881652],"children":[5]}],"scenes":[{"name":"Sketchfab_Scene","nodes":[6]}],"scene":0}